<svg xmlns:xlink="http://www.w3.org/1999/xlink" xmlns="http://www.w3.org/2000/svg" class="h-full w-full" viewBox="0 0 67 23" width="49"  height="16.82089552238806" ><path d="M6.53564 5.57748H8.80797L7.67181 2.68542L6.53564 5.57748Z" fill="#2FABF7"></path><path d="M34.7334 3.09865C34.5268 2.99536 34.2169 2.99536 33.9071 2.99536H31.8413V4.64796H33.9071C34.2169 4.64796 34.5268 4.64796 34.7334 4.54468C34.9399 4.44139 35.0432 4.13152 35.0432 3.82166C35.1465 3.40851 34.9399 3.20194 34.7334 3.09865Z" fill="#228FE0"></path><path d="M56.8366 0V1.23945L56.2169 0H51.3624V1.23945L50.7427 0H44.1323C42.9961 0 42.0665 0.206576 41.2402 0.619726V0H36.5923V0.619726C36.0758 0.206576 35.4561 0 34.6298 0H18.0005L16.8643 2.58219L15.7281 0H10.4605V1.23945L9.84075 0H5.39938L3.33362 4.85452L0.958008 10.2255H3.33362H6.22568L6.8454 8.57288H8.29143L8.91116 10.2255H14.9018V8.98603L15.4183 10.2255H18.4136L18.9301 8.98603V10.2255H33.287V7.54H33.4936C33.7002 7.54 33.7002 7.54 33.7002 7.84986V10.1222H41.1369V9.50246C41.7566 9.81233 42.6862 10.1222 43.9257 10.1222H47.0243L47.644 8.46959H49.0901L49.7098 10.1222H55.7005V8.57288L56.6301 10.1222H61.4846V0H56.8366ZM21.9254 8.67616H20.1695V2.99534L17.6906 8.67616H16.1413L13.6624 2.99534V8.67616H10.1506L9.4276 7.12685H5.91582L5.29609 8.77945H3.33362L6.43225 1.44603H9.01445L11.9065 8.3663V1.44603H14.6953L16.9676 6.40384L19.0334 1.44603H21.9254V8.67616ZM28.949 2.99534H24.9207V4.33808H28.8457V5.78411H24.9207V7.23014H28.949V8.77945H23.1649V1.44603H28.949V2.99534ZM36.6955 5.99068C36.9021 6.40384 37.0054 6.7137 37.0054 7.33342V8.77945H35.2495V7.84986C35.2495 7.43671 35.2495 6.81699 34.9397 6.40384C34.6298 6.09397 34.3199 6.09397 33.7002 6.09397H31.841V8.77945H30.0851V1.44603H34.0101C34.9397 1.44603 35.5594 1.44603 36.0758 1.75589C36.5923 2.06575 36.9021 2.58219 36.9021 3.40849C36.9021 4.54466 36.1791 5.16438 35.6627 5.37096C36.1791 5.47425 36.489 5.78411 36.6955 5.99068ZM39.7942 8.67616H38.0383V1.34274H39.7942V8.67616ZM60.1418 8.67616H57.6629L54.3577 3.20192V8.67616H50.846L50.2262 7.12685H46.6112L45.9914 8.77945H44.029C43.2027 8.77945 42.1698 8.57288 41.5501 7.95315C40.9303 7.33342 40.6205 6.50712 40.6205 5.16438C40.6205 4.13151 40.827 3.09863 41.5501 2.27233C42.0665 1.6526 42.9961 1.44603 44.1323 1.44603H45.7849V2.99534H44.1323C43.5125 2.99534 43.2027 3.09863 42.7895 3.40849C42.4797 3.71836 42.2731 4.33808 42.2731 5.0611C42.2731 5.8874 42.3764 6.40383 42.7895 6.81699C43.0994 7.12685 43.5125 7.23014 44.029 7.23014H44.752L47.1276 1.54931H49.7098L52.6018 8.46959V1.54931H55.184L58.1794 6.61041V1.54931H59.9353V8.67616H60.1418Z" fill="#0571C1"></path><path d="M47.2305 5.5776H49.6061L48.4699 2.68555L47.2305 5.5776Z" fill="#228FE0"></path><path d="M29.6718 20.451V14.5636L26.9863 17.4557L29.6718 20.451Z" fill="#228FE0"></path><path d="M18.6201 15.2866V16.6294H22.4418V18.0754H18.6201V19.6247H22.8549L24.8174 17.4557L22.9582 15.2866H18.6201Z" fill="#2FABF7"></path><path d="M33.5968 15.2866H31.4277V17.1458H33.7001C34.3198 17.1458 34.7329 16.8359 34.7329 16.2162C34.6297 15.5965 34.2165 15.2866 33.5968 15.2866Z" fill="#228FE0"></path><path d="M65.5127 17.0425V12.3945H64.2733H61.1747C60.2451 12.3945 59.5221 12.6011 59.0056 13.0143V12.3945H54.2544C53.5314 12.3945 52.6018 12.6011 52.1886 13.0143V12.3945H43.8223V13.0143C43.2026 12.4978 42.0664 12.3945 41.55 12.3945H35.9725V13.0143C35.456 12.4978 34.2166 12.3945 33.5969 12.3945H27.3996L25.9536 13.9438L24.6108 12.3945H15.3149V22.5167H24.4043L25.8503 20.9674L27.193 22.5167H32.7706V20.1411H33.4936C34.2166 20.1411 35.1462 20.1411 35.8692 19.8312V22.62H40.5171V19.9345H40.7237C41.0336 19.9345 41.0336 19.9345 41.0336 20.2444V22.62H55.0807C56.0103 22.62 56.9399 22.4134 57.4563 22.0003V22.62H61.8977C62.8273 22.62 63.7569 22.5167 64.3766 22.1036C65.4095 21.4838 66.0292 20.3477 66.0292 19.0049C66.0292 18.2819 65.8226 17.5589 65.5127 17.0425ZM33.4936 18.6951H31.4278V21.174H28.1226L26.0569 18.7984L23.8878 21.174H17.0708V13.8406H23.9911L26.0569 16.2162L28.2259 13.8406H33.7001C35.0429 13.8406 36.5922 14.2537 36.5922 16.2162C36.4889 18.2819 35.0429 18.6951 33.4936 18.6951ZM43.8223 18.2819C44.0289 18.5918 44.1322 19.0049 44.1322 19.6247V21.0707H42.3763V20.1411C42.3763 19.728 42.3763 19.0049 42.0664 18.6951C41.8599 18.3852 41.4467 18.3852 40.827 18.3852H38.9678V21.0707H37.2119V13.7373H41.1369C41.9632 13.7373 42.6862 13.7373 43.2026 14.0471C43.7191 14.357 44.1322 14.8734 44.1322 15.6997C44.1322 16.8359 43.4092 17.4556 42.8927 17.6622C43.4092 17.8688 43.719 18.0754 43.8223 18.2819ZM50.9492 15.2866H46.921V16.6293H50.8459V18.0754H46.921V19.5214H50.9492V21.0707H45.1651V13.7373H50.9492V15.2866ZM55.2873 21.0707H51.9821V19.5214H55.2873C55.5971 19.5214 55.8037 19.5214 56.0103 19.3148C56.1136 19.2115 56.2169 19.0049 56.2169 18.7984C56.2169 18.5918 56.1136 18.3852 56.0103 18.2819C55.907 18.1786 55.7004 18.0754 55.3906 18.0754C53.738 17.9721 51.7755 18.0754 51.7755 15.803C51.7755 14.7701 52.3952 13.634 54.2544 13.634H57.6629V15.3899H54.461C54.1511 15.3899 53.9445 15.3899 53.7379 15.4932C53.5314 15.5964 53.5314 15.803 53.5314 16.0096C53.5314 16.3195 53.738 16.4227 53.9445 16.526C54.1511 16.6293 54.3577 16.6293 54.5643 16.6293H55.4938C56.4234 16.6293 57.0432 16.8359 57.4563 17.2491C57.7662 17.5589 57.9727 18.0754 57.9727 18.7984C57.9727 20.3477 57.0432 21.0707 55.2873 21.0707ZM64.17 20.3477C63.7569 20.7608 63.0338 21.0707 62.001 21.0707H58.6958V19.5214H62.001C62.3108 19.5214 62.5174 19.5214 62.724 19.3148C62.8273 19.2115 62.9306 19.0049 62.9306 18.7984C62.9306 18.5918 62.8273 18.3852 62.724 18.2819C62.6207 18.1786 62.4141 18.0754 62.1043 18.0754C60.4517 17.9721 58.4892 18.0754 58.4892 15.803C58.4892 14.7701 59.1089 13.634 60.9681 13.634H64.3766V15.3899H61.278C60.9681 15.3899 60.7615 15.3899 60.5549 15.4932C60.3484 15.5964 60.3484 15.803 60.3484 16.0096C60.3484 16.3195 60.4516 16.4227 60.7615 16.526C60.9681 16.6293 61.1747 16.6293 61.3812 16.6293H62.3108C63.2404 16.6293 63.8601 16.8359 64.2733 17.2491C64.3766 17.2491 64.3766 17.3523 64.3766 17.3523C64.6864 17.7655 64.7897 18.2819 64.7897 18.7984C64.7897 19.4181 64.5832 19.9345 64.17 20.3477Z" fill="#0571C1"></path><path d="M41.9633 15.4932C41.7568 15.3899 41.4469 15.3899 41.137 15.3899H39.0713V17.0425H41.137C41.4469 17.0425 41.7568 17.0425 41.9633 16.9392C42.1699 16.8359 42.2732 16.5261 42.2732 16.2162C42.3765 15.803 42.1699 15.5965 41.9633 15.4932Z" fill="#228FE0"></path><path d="M34.733 3.09865C34.5264 2.99536 34.2165 2.99536 33.9066 2.99536H31.8408V4.64795H33.9066C34.2165 4.64795 34.5264 4.64795 34.733 4.54466C34.9395 4.44138 35.0428 4.13152 35.0428 3.82166C35.1461 3.40851 34.9395 3.20193 34.733 3.09865Z" fill="#228FE0"></path><path d="M47.2305 5.5776H49.6061L48.4699 2.68555L47.2305 5.5776Z" fill="#228FE0"></path><path d="M29.6718 20.451V14.5636L26.9863 17.4557L29.6718 20.451Z" fill="#228FE0"></path><path d="M33.5968 15.2866H31.4277V17.1458H33.7001C34.3198 17.1458 34.7329 16.8359 34.7329 16.2162C34.6297 15.5965 34.2165 15.2866 33.5968 15.2866Z" fill="#228FE0"></path><path d="M41.9633 15.4932C41.7568 15.3899 41.4469 15.3899 41.137 15.3899H39.0713V17.0425H41.137C41.4469 17.0425 41.7568 17.0425 41.9633 16.9392C42.1699 16.8359 42.2732 16.5261 42.2732 16.2162C42.3765 15.803 42.1699 15.5965 41.9633 15.4932Z" fill="#228FE0"></path><path d="M32.8738 20.8641L31.4278 19.3148V21.0707H28.0193L25.9536 18.6951L23.6812 21.0707H16.8643V13.8406H23.7845L25.9536 16.2162L26.9864 14.9767L24.4043 12.3945H15.3149V22.5167H24.4043L25.9536 20.9674L27.2963 22.5167H32.8738V20.8641Z" fill="#2FABF7"></path><path d="M22.132 10.1222L20.7892 8.67617H20.1695V8.05644L18.6202 6.50712L17.5873 8.67617H16.1413L13.6624 2.99534V8.67617H10.1506L9.42759 7.12685H5.91582L5.1928 8.67617H3.33362L6.43225 1.44603H9.01444L11.9065 8.3663V1.44603H13.4558L12.0098 0H10.4605V1.23945L9.94403 0H5.39938L3.33362 4.85452L0.958008 10.1222H3.33362H6.32897L6.94869 8.57288H8.39472L9.11773 10.1222H14.9018V8.88274L15.4183 10.1222H18.4136L18.9301 8.88274V10.1222H22.132Z" fill="#2FABF7"></path><path d="M17.3806 5.37099L15.728 3.71838L16.9675 6.40386L17.3806 5.37099Z" fill="#2FABF7"></path><path d="M64.3765 22.0002C65.3061 21.3805 65.9258 20.3476 66.0291 19.2114L64.5831 17.7654C64.6864 18.0753 64.7897 18.3851 64.7897 18.7983C64.7897 19.418 64.5831 19.9345 64.1699 20.3476C63.7568 20.7608 63.0338 21.0706 62.0009 21.0706H58.6957V19.5213H62.0009C62.3108 19.5213 62.5173 19.5213 62.7239 19.3147C62.8272 19.2114 62.9305 19.0049 62.9305 18.7983C62.9305 18.5917 62.8272 18.3851 62.7239 18.2819C62.6206 18.1786 62.4141 18.0753 62.1042 18.0753C60.4516 17.972 58.4891 18.0753 58.4891 15.8029C58.4891 14.7701 59.1089 13.8405 60.6582 13.6339L59.522 12.4977C59.3154 12.601 59.2121 12.7043 59.1089 12.7043V12.0846H54.3576C53.6346 12.0846 52.705 12.2912 52.2919 12.7043V12.0846H43.8223V12.7043C43.2026 12.1879 42.0664 12.0846 41.55 12.0846H35.9724V12.7043C35.456 12.1879 34.2165 12.0846 33.5968 12.0846H27.3995L25.9535 13.6339L24.6108 12.0846H23.4746L26.5732 15.1832L28.1226 13.5306H33.5968C34.9395 13.5306 36.4889 13.9438 36.4889 15.9062C36.4889 17.972 35.0428 18.3851 33.4935 18.3851H31.4278V19.9345L32.9771 21.4838V19.9345H33.4935C34.2165 19.9345 35.1461 19.9345 35.8691 19.6246V22.4134H40.5171V19.7279H40.7236C41.0335 19.7279 41.0335 19.7279 41.0335 20.0377V22.4134H55.0806C56.0102 22.4134 56.9398 22.2068 57.4563 21.7936V22.4134H61.8976C62.7239 22.5166 63.6535 22.4134 64.3765 22.0002ZM43.8223 18.2819C44.0289 18.5917 44.1321 19.0049 44.1321 19.6246V21.0706H42.3763V20.141C42.3763 19.7279 42.3763 19.0049 42.0664 18.695C41.8598 18.3851 41.4467 18.3851 40.8269 18.3851H38.9678V21.0706H37.2119V13.7372H41.1368C41.9631 13.7372 42.6861 13.7372 43.2026 14.0471C43.719 14.3569 44.1321 14.8734 44.1321 15.6997C44.1321 16.8358 43.4091 17.4556 42.8927 17.6621C43.4091 17.8687 43.719 18.0753 43.8223 18.2819ZM50.9491 15.2865H46.9209V16.6293H50.8458V18.0753H46.9209V19.5213H50.9491V21.0706H45.165V13.7372H50.9491V15.2865ZM55.2872 21.0706H51.982V19.5213H55.2872C55.5971 19.5213 55.8036 19.5213 56.0102 19.3147C56.1135 19.2114 56.2168 19.0049 56.2168 18.7983C56.2168 18.5917 56.1135 18.3851 56.0102 18.2819C55.9069 18.1786 55.7004 18.0753 55.3905 18.0753C53.7379 17.972 51.7754 18.0753 51.7754 15.8029C51.7754 14.7701 52.3952 13.6339 54.2543 13.6339H57.6628V15.3898H54.4609C54.151 15.3898 53.9445 15.3898 53.7379 15.4931C53.5313 15.5964 53.5313 15.8029 53.5313 16.0095C53.5313 16.3194 53.7379 16.4227 53.9445 16.526C54.151 16.6293 54.3576 16.6293 54.5642 16.6293H55.4938C56.4234 16.6293 57.0431 16.8358 57.4563 17.249C57.7661 17.5588 57.9727 18.0753 57.9727 18.7983C57.9727 20.3476 57.0431 21.0706 55.2872 21.0706Z" fill="#228FE0"></path><path d="M60.2446 16.0096C60.2446 16.3195 60.3479 16.4228 60.6578 16.5261C60.8644 16.6293 61.0709 16.6293 61.2775 16.6293H62.2071C62.8268 16.6293 63.24 16.7326 63.6531 16.9392L62.1038 15.3899H61.1742C60.8644 15.3899 60.6578 15.3899 60.4512 15.4932C60.3479 15.5965 60.2446 15.803 60.2446 16.0096Z" fill="#228FE0"></path><path d="M56.6299 9.81226L56.8365 10.1221H56.9397L56.6299 9.81226Z" fill="#228FE0"></path><path d="M50.9492 4.13147L52.7051 8.36626V5.88736L50.9492 4.13147Z" fill="#228FE0"></path><path d="M33.2867 7.53998H33.4932C33.6998 7.53998 33.6998 7.53998 33.6998 7.84985V10.1222H41.1365V9.50245C41.7563 9.81231 42.6858 10.1222 43.9253 10.1222H47.0239L47.6437 8.46957H49.0897L49.7094 10.1222H55.7001V9.0893L54.2541 7.64327V8.77943H50.7423L50.2258 7.12683H46.6108L45.991 8.77943H44.0286C43.2023 8.77943 42.1694 8.57286 41.5497 7.95313C40.93 7.33341 40.6201 6.50711 40.6201 5.16437C40.6201 4.13149 40.8267 3.09861 41.5497 2.27231C42.0661 1.65259 42.9957 1.44601 44.1319 1.44601H45.7845V2.99533H44.1319C43.5121 2.99533 43.2023 3.09861 42.7891 3.40848C42.4793 3.71834 42.2727 4.33807 42.2727 5.06108C42.2727 5.88738 42.376 6.40382 42.7891 6.81697C43.099 7.12683 43.5121 7.23012 44.0286 7.23012H44.7516L47.1272 1.5493H48.1601L46.7141 0.103271H44.0286C42.8924 0.103271 41.9628 0.309847 41.1365 0.722998V0.103271H36.5919V0.722998C36.0754 0.309847 35.4557 0.103271 34.6294 0.103271H18.0001L16.8639 2.68546L15.7278 0.103271H11.1831L12.6291 1.5493H14.6949L16.4508 5.37094L17.0705 5.99067L18.9297 1.44601H21.8217V8.77943H20.0658V3.09861L18.31 7.23012L21.3053 10.2255H33.1834L33.2867 7.53998ZM38.0379 1.44601H39.7938V8.77943H38.0379V1.44601ZM28.9486 2.99533H24.9204V4.33807H28.8453V5.78409H24.9204V7.23012H28.9486V8.77943H23.1645V1.44601H28.9486V2.99533ZM31.8406 8.67615H30.0847V1.34272H34.0097C34.9393 1.34272 35.559 1.34272 36.0754 1.65259C36.5919 1.96245 36.9017 2.47889 36.9017 3.30519C36.9017 4.44135 36.1787 5.06108 35.6623 5.26765C36.0754 5.37094 36.3853 5.68081 36.4886 5.88738C36.6952 6.30053 36.7984 6.61039 36.7984 7.23012V8.67615H35.0426V7.74656C35.0426 7.33341 35.0426 6.71368 34.7327 6.30053C34.6294 6.09396 34.3195 6.09396 33.6998 6.09396H31.8406V8.67615Z" fill="#228FE0"></path></svg>