<svg xmlns:xlink="http://www.w3.org/1999/xlink" xmlns="http://www.w3.org/2000/svg" class="h-full w-full" viewBox="0 0 67 22" width="49"  height="16.08955223880597" ><path d="M35.4764 11.94C38.5098 11.94 40.9689 9.4809 40.9689 6.44747C40.9689 3.41404 38.5098 0.954956 35.4764 0.954956C32.443 0.954956 29.9839 3.41404 29.9839 6.44747C29.9839 9.4809 32.443 11.94 35.4764 11.94Z" fill="#EF9122"></path><path d="M29.9839 6.44747C29.9839 3.38434 32.4133 0.954956 35.4764 0.954956C38.5395 0.954956 40.9689 3.38434 40.9689 6.44747C40.9689 9.5106 38.5395 11.94 35.4764 11.94" fill="#F26E21"></path><path d="M31.6738 2.53933C33.7863 0.42683 37.272 0.42683 39.3845 2.53933C41.497 4.65184 41.497 8.13747 39.3845 10.25" fill="#F44500"></path><path d="M3.68309 1.27185H0.725586V11.6231H3.68309C5.26747 11.6231 6.42935 11.2006 7.37997 10.4612C8.54185 9.51062 9.28123 8.03186 9.28123 6.44749C9.28123 3.38436 7.0631 1.27185 3.68309 1.27185ZM6.11247 9.08812C5.47872 9.61624 4.63372 9.93312 3.36622 9.93312H2.73246V3.06748H3.26059C4.52809 3.06748 5.37309 3.27873 6.00685 3.91248C6.74622 4.54623 7.16872 5.49686 7.16872 6.44749C7.27435 7.39811 6.85185 8.45436 6.11247 9.08812Z" fill="#595A5B"></path><path d="M12.2388 1.27185H10.2319V11.6231H12.2388V1.27185Z" fill="#595A5B"></path><path d="M17.3085 5.28564C16.041 4.86314 15.7241 4.54626 15.7241 4.01814C15.7241 3.38439 16.3579 2.85626 17.2029 2.85626C17.8366 2.85626 18.3648 3.06751 18.8929 3.70126L19.9491 2.32814C19.1041 1.58876 18.0479 1.16626 16.886 1.16626C15.0904 1.16626 13.6116 2.43376 13.6116 4.12376C13.6116 5.60252 14.2454 6.23627 16.1466 6.97564C16.9916 7.29252 17.3085 7.39814 17.5198 7.60939C17.9423 7.82064 18.1535 8.24314 18.1535 8.66565C18.1535 9.51065 17.5198 10.1444 16.5691 10.1444C15.6185 10.1444 14.7735 9.61627 14.351 8.77127L13.0835 10.0388C14.0341 11.4119 15.196 12.0457 16.6748 12.0457C18.7873 12.0457 20.266 10.6725 20.266 8.66565C20.266 6.87002 19.6323 6.13064 17.3085 5.28564Z" fill="#595A5B"></path><path d="M20.8999 6.4475C20.8999 9.51063 23.3293 11.8344 26.3924 11.8344C27.2374 11.8344 27.9768 11.6231 28.9274 11.2006V8.77126C28.0824 9.61626 27.343 9.93313 26.498 9.93313C24.4912 9.93313 23.0124 8.45438 23.0124 6.34188C23.0124 4.335 24.4912 2.75062 26.3924 2.75062C27.343 2.75062 28.0824 3.06749 28.9274 3.9125V1.48312C28.0824 1.06062 27.343 0.849365 26.3924 0.849365C23.4349 1.06062 20.8999 3.49 20.8999 6.4475Z" fill="#3B3D3F"></path><path d="M45.5108 8.24311L42.7645 1.27185H40.5464L44.877 11.94H46.0389L50.5808 1.27185H48.3626L45.5108 8.24311Z" fill="black"></path><path d="M51.4253 11.6231H57.2347V9.93312H53.5378V7.08124H57.1291V5.28561H53.5378V3.06748H57.2347V1.27185H51.4253V11.6231Z" fill="black"></path><path d="M62.9385 7.29249C64.5229 6.97561 65.3679 5.91936 65.3679 4.33498C65.3679 2.43373 63.9948 1.27185 61.671 1.27185H58.6079V11.6231H60.6148V7.50374H60.9317L63.7835 11.6231H66.2129L62.9385 7.29249ZM61.2485 6.02498H60.6148V2.85623H61.2485C62.516 2.85623 63.2554 3.38435 63.2554 4.44061C63.2554 5.49686 62.516 6.02498 61.2485 6.02498Z" fill="#595A5B"></path><path d="M3.68309 1.27185H0.725586V11.6231H3.68309C5.26747 11.6231 6.42935 11.2006 7.37997 10.4612C8.54185 9.51062 9.28123 8.03186 9.28123 6.44749C9.28123 3.38436 7.0631 1.27185 3.68309 1.27185ZM6.11247 9.08812C5.47872 9.61624 4.63372 9.93312 3.36622 9.93312H2.73246V3.06748H3.26059C4.52809 3.06748 5.37309 3.27873 6.00685 3.91248C6.74622 4.54623 7.16872 5.49686 7.16872 6.44749C7.27435 7.39811 6.85185 8.45436 6.11247 9.08812Z" fill="#595A5B"></path><path d="M12.2388 1.27185H10.2319V11.6231H12.2388V1.27185Z" fill="#595A5B"></path><path d="M17.3085 5.28564C16.041 4.86314 15.7241 4.54626 15.7241 4.01814C15.7241 3.38439 16.3579 2.85626 17.2029 2.85626C17.8366 2.85626 18.3648 3.06751 18.8929 3.70126L19.9491 2.32814C19.1041 1.58876 18.0479 1.16626 16.886 1.16626C15.0904 1.16626 13.6116 2.43376 13.6116 4.12376C13.6116 5.60252 14.2454 6.23627 16.1466 6.97564C16.9916 7.29252 17.3085 7.39814 17.5198 7.60939C17.9423 7.82064 18.1535 8.24314 18.1535 8.66565C18.1535 9.51065 17.5198 10.1444 16.5691 10.1444C15.6185 10.1444 14.7735 9.61627 14.351 8.77127L13.0835 10.0388C14.0341 11.4119 15.196 12.0457 16.6748 12.0457C18.7873 12.0457 20.266 10.6725 20.266 8.66565C20.266 6.87002 19.6323 6.13064 17.3085 5.28564Z" fill="#595A5B"></path><path d="M26.4978 11.8344C27.3428 11.8344 28.0822 11.6231 29.0328 11.2006V8.77126C28.1878 9.61626 27.4484 9.93314 26.6034 9.93314C24.5965 9.93314 23.1178 8.45439 23.1178 6.34188C23.1178 5.28563 23.5403 4.44063 24.174 3.70125L22.8009 2.32812C21.7446 3.27875 21.0053 4.75751 21.0053 6.34188C20.8996 9.51064 23.329 11.8344 26.4978 11.8344Z" fill="#595A5B"></path><path d="M62.9385 7.29249C64.5229 6.97561 65.3679 5.91936 65.3679 4.33498C65.3679 2.43373 63.9948 1.27185 61.671 1.27185H58.6079V11.6231H60.6148V7.50374H60.9317L63.7835 11.6231H66.2129L62.9385 7.29249ZM61.2485 6.02498H60.6148V2.85623H61.2485C62.516 2.85623 63.2554 3.38435 63.2554 4.44061C63.2554 5.49686 62.516 6.02498 61.2485 6.02498Z" fill="black"></path><path d="M15.6187 21.235V15.4257L19.6324 19.545V15.7425H20.4774V21.5519L16.4637 17.4325V21.235H15.6187Z" fill="#F26E21"></path><path d="M24.7023 16.5876H22.4842V17.8551H24.5967V18.7001H22.4842V20.4957H24.7023V21.2351H21.6392V15.7426H24.7023V16.5876Z" fill="#F26E21"></path><path d="M27.343 16.5875V21.235H26.498V16.5875H25.2305V15.8481H28.6105V16.5875H27.343Z" fill="#F26E21"></path><path d="M29.8782 15.8482L31.2513 19.5451L32.7301 15.637L34.1032 19.5451L35.582 15.8482H36.6382L34.2088 21.6576L32.8357 17.7495L31.357 21.6576L29.0332 15.8482H29.8782Z" fill="#F26E21"></path><path d="M36.7437 18.4888C36.7437 17.7495 37.0605 17.0101 37.5887 16.482C38.1168 15.9538 38.8562 15.637 39.5955 15.637C40.3349 15.637 41.0743 15.9538 41.6024 16.482C42.1305 17.0101 42.4474 17.7495 42.4474 18.4888C42.4474 19.2282 42.1305 19.9676 41.6024 20.4957C41.0743 21.0238 40.3349 21.3407 39.5955 21.3407C38.8562 21.3407 38.2224 21.1295 37.6943 20.6013C37.0605 20.0732 36.7437 19.4395 36.7437 18.4888ZM37.5887 18.4888C37.5887 19.1226 37.7999 19.5451 38.2224 19.9676C38.6449 20.3901 39.0674 20.6013 39.5955 20.6013C40.1237 20.6013 40.6518 20.3901 41.0743 19.9676C41.4968 19.5451 41.708 19.1226 41.708 18.4888C41.708 17.8551 41.4968 17.4326 41.0743 17.0101C40.6518 16.5876 40.2293 16.3763 39.5955 16.3763C39.0674 16.3763 38.5393 16.5876 38.1168 17.0101C37.7999 17.4326 37.5887 17.9607 37.5887 18.4888Z" fill="#F26E21"></path><path d="M45.4052 18.9113L47.0952 21.2351H46.0389L44.4545 19.0169H44.3489V21.2351H43.5039V15.7426H44.4545C45.1939 15.7426 45.722 15.8482 46.0389 16.1651C46.3558 16.4819 46.567 16.9044 46.567 17.3269C46.567 17.7494 46.4614 18.0663 46.2502 18.2776C46.0389 18.7001 45.722 18.9113 45.4052 18.9113ZM44.3489 18.2776H44.5602C45.2995 18.2776 45.722 17.9607 45.722 17.4326C45.722 16.9044 45.2995 16.5876 44.5602 16.5876H44.2433V18.2776H44.3489V18.2776Z" fill="#F26E21"></path><path d="M48.6791 17.9607L50.7916 15.7426H51.8479L49.4185 18.172L51.8479 21.1295H50.7916L48.7848 18.7001L48.5735 18.9113V21.1295H47.7285V15.637H48.5735V17.9607H48.6791Z" fill="#F26E21"></path><path d="M55.4395 9.93307H53.5383V8.03181L51.4258 5.91931V11.6231H57.1295L55.4395 9.93307Z" fill="#3B3D3F"></path><path d="M47.8345 2.3281L45.5108 8.24311L42.7645 1.27185H40.5464L44.877 11.94H46.0389L49.4189 3.91248L47.8345 2.3281Z" fill="#3B3D3F"></path></svg>