<svg xmlns:xlink="http://www.w3.org/1999/xlink" xmlns="http://www.w3.org/2000/svg" viewBox="0 0 114 18" width="114"  height="18" ><g opacity="0.5"><path d="M88.6046 7.179L85.7295 4.31109C84.9364 3.52 83.6504 3.52 82.8573 4.31109L79.9848 7.17634L79.9826 7.17862L79.285 7.87445C79.2766 7.88283 79.2685 7.8916 79.2605 7.89998C79.2601 7.90036 79.2597 7.90113 79.259 7.90151C78.8957 8.29248 78.9094 8.90752 79.2972 9.29431V9.29393C79.2976 9.29469 79.2983 9.29507 79.2987 9.29583L79.2991 9.29621C79.3041 9.30231 79.3109 9.30841 79.3186 9.3145C79.4026 9.39376 79.4962 9.45664 79.5956 9.50237C79.5956 9.50237 79.5956 9.50237 79.5956 9.50275C79.6597 9.53209 79.7262 9.55457 79.7938 9.5702C80.1193 9.64489 80.4716 9.558 80.7225 9.30764L81.1905 8.84084L81.4205 8.61143L81.4251 8.60686L81.7464 8.28638L82.7974 7.23807L82.8566 7.179C82.8562 7.17862 82.8554 7.17786 82.8551 7.17748C82.8562 7.17634 82.857 7.17557 82.8581 7.17443C83.6516 6.38638 84.9348 6.38715 85.7272 7.1771C85.7283 7.17824 85.7291 7.17938 85.7302 7.18015C86.5191 7.97048 86.5191 9.24858 85.7302 10.0389C85.7291 10.0401 85.7283 10.0412 85.7272 10.042L85.004 10.7633L82.8551 12.9068L82.3584 13.4022C81.6169 14.1419 80.6095 14.454 79.6433 14.3389C79.6445 14.34 79.6456 14.3412 79.6467 14.3423C80.93 15.6223 83.0105 15.6223 84.2938 14.3423L85.7298 12.9099L88.605 10.042C89.3977 9.25277 89.3977 7.9701 88.6046 7.179ZM79.2601 7.90151L79.2605 7.90265L79.2601 7.90151Z" fill="#A7ABB9"></path><path d="M75.5949 10.1233L78.47 12.9912C79.2631 13.7823 80.5491 13.7823 81.3422 12.9912L84.2147 10.126L84.217 10.1237L84.9145 9.42785C84.923 9.41947 84.931 9.4107 84.939 9.40232C84.9394 9.40194 84.9398 9.40118 84.9405 9.40079C85.3038 9.00982 85.2901 8.39478 84.9023 8.008V8.00838C84.9019 8.00761 84.9012 8.00723 84.9008 8.00647L84.9004 8.00609C84.8954 7.99999 84.8886 7.9939 84.8809 7.9878C84.7969 7.90854 84.7033 7.84566 84.604 7.79993C84.604 7.79993 84.604 7.79993 84.604 7.79955C84.5398 7.77021 84.4733 7.74773 84.4057 7.7321C84.0802 7.65741 83.728 7.7443 83.477 7.99466L83.009 8.46146L82.779 8.69087L82.7744 8.69544L82.4531 9.01592L81.4021 10.0642L81.3429 10.1233C81.3433 10.1237 81.3441 10.1244 81.3445 10.1248C81.3433 10.126 81.3425 10.1267 81.3414 10.1279C80.5479 10.9159 79.2647 10.9152 78.4723 10.1252C78.4712 10.1241 78.4704 10.1229 78.4693 10.1222C77.6804 9.33182 77.6804 8.05372 78.4693 7.26339C78.4704 7.26225 78.4712 7.2611 78.4723 7.26034L79.1955 6.53898L81.3445 4.39548L81.8411 3.90009C82.5826 3.16044 83.59 2.84835 84.5562 2.96343C84.5551 2.96229 84.5539 2.96115 84.5528 2.96C83.2695 1.68 81.189 1.68 79.9057 2.96L78.4697 4.39243L75.5945 7.26034C74.8018 8.04953 74.8018 9.33182 75.5949 10.1233ZM84.9398 9.40079L84.9394 9.39965L84.9398 9.40079Z" fill="#A7ABB9"></path><path d="M100 13.3313V4.45484C100 4.45484 99.9288 2.19206 97.9392 2V6.34763C97.3175 5.48169 96.4341 5.03999 95.5013 5.03999C93.4889 5.03999 92 6.73648 92 9.52873C92 12.3738 93.5051 14 95.5013 14C96.4502 14 97.5189 13.5205 98.1406 12.6721C98.2708 12.9901 98.723 13.9377 100 14V13.7367V13.3313ZM96.1392 12.0029C94.9613 12.0029 94.143 10.9954 94.143 9.52873C94.143 8.04412 94.9613 7.03708 96.1392 7.03708C96.8426 7.03708 97.5953 7.44339 97.9387 8.0092V11.0313C97.5953 11.5961 96.8426 12.0029 96.1392 12.0029Z" fill="#A7ABB9"></path><path d="M108.617 7.57448C108.617 7.09523 109.182 6.72216 110.048 6.72216C110.428 6.72216 110.799 6.77431 111.145 6.86485C112.796 7.39292 113.687 6.1884 113.687 6.1884L113.698 6.17039C112.795 5.49631 111.572 5 110.029 5C107.639 5 106.302 6.26045 106.302 7.6982C106.302 11.0714 111.704 9.91715 111.704 11.3374C111.704 11.8697 111.215 12.2603 110.179 12.2603C109.7 12.2603 109.18 12.1546 108.69 11.9887C108.659 11.9782 108.63 11.9707 108.602 11.9645C106.911 11.4113 106 12.6665 106 12.6665L106.07 12.5822L106 12.6684C106.96 13.5027 108.485 14 110.066 14C112.588 14 114 12.8106 114 11.2482C114.001 7.78732 108.617 8.85247 108.617 7.57448Z" fill="#A7ABB9"></path><path d="M102.008 2C102.008 2 102.007 9.19292 102 11.5142C101.993 13.8358 103.975 14 103.975 14C103.975 14 103.992 7.77972 104 5.00236C104.009 2.0033 102.008 2 102.008 2Z" fill="#A7ABB9"></path><path d="M2.46 9.856V13H0.768V4.528H3.852C4.852 4.528 5.604 4.768 6.108 5.248C6.62 5.728 6.876 6.38 6.876 7.204C6.876 8.012 6.612 8.656 6.084 9.136C5.564 9.616 4.82 9.856 3.852 9.856H2.46ZM3.672 8.5C4.664 8.5 5.16 8.068 5.16 7.204C5.16 6.78 5.044 6.456 4.812 6.232C4.58 6.008 4.2 5.896 3.672 5.896H2.46V8.5H3.672ZM11.047 6.268C11.695 6.268 12.275 6.404 12.787 6.676C13.307 6.948 13.715 7.344 14.011 7.864C14.307 8.376 14.455 8.98 14.455 9.676C14.455 10.372 14.307 10.976 14.011 11.488C13.715 12 13.307 12.396 12.787 12.676C12.275 12.948 11.695 13.084 11.047 13.084C10.399 13.084 9.81503 12.948 9.29503 12.676C8.78303 12.396 8.37903 12 8.08303 11.488C7.78703 10.976 7.63903 10.372 7.63903 9.676C7.63903 8.98 7.78703 8.376 8.08303 7.864C8.37903 7.344 8.78303 6.948 9.29503 6.676C9.81503 6.404 10.399 6.268 11.047 6.268ZM11.047 7.732C10.575 7.732 10.175 7.9 9.84703 8.236C9.51903 8.564 9.35503 9.044 9.35503 9.676C9.35503 10.308 9.51903 10.792 9.84703 11.128C10.175 11.456 10.575 11.62 11.047 11.62C11.519 11.62 11.919 11.456 12.247 11.128C12.575 10.792 12.739 10.308 12.739 9.676C12.739 9.044 12.575 8.564 12.247 8.236C11.919 7.9 11.519 7.732 11.047 7.732ZM25.1668 6.352L23.3788 13H21.5068L20.0788 8.164L18.6148 13H16.7428L14.9668 6.352H16.6588L17.7388 11.488L19.2148 6.352H21.0028L22.4908 11.488L23.5828 6.352H25.1668ZM32.2622 9.424C32.2622 9.592 32.2422 9.784 32.2022 10H27.3302C27.3542 10.592 27.5142 11.028 27.8102 11.308C28.1062 11.588 28.4742 11.728 28.9142 11.728C29.3062 11.728 29.6302 11.632 29.8862 11.44C30.1502 11.248 30.3182 10.988 30.3902 10.66H32.1782C32.0902 11.124 31.9022 11.54 31.6142 11.908C31.3262 12.276 30.9542 12.564 30.4982 12.772C30.0502 12.98 29.5502 13.084 28.9982 13.084C28.3502 13.084 27.7742 12.948 27.2702 12.676C26.7662 12.396 26.3742 12 26.0942 11.488C25.8142 10.976 25.6742 10.372 25.6742 9.676C25.6742 8.98 25.8142 8.376 26.0942 7.864C26.3742 7.344 26.7662 6.948 27.2702 6.676C27.7742 6.404 28.3502 6.268 28.9982 6.268C29.6542 6.268 30.2262 6.404 30.7142 6.676C31.2102 6.948 31.5902 7.324 31.8542 7.804C32.1262 8.276 32.2622 8.816 32.2622 9.424ZM30.5582 9.256C30.5822 8.712 30.4382 8.3 30.1262 8.02C29.8222 7.74 29.4462 7.6 28.9982 7.6C28.5422 7.6 28.1582 7.74 27.8462 8.02C27.5342 8.3 27.3622 8.712 27.3302 9.256H30.5582ZM35.1553 7.624C35.4033 7.2 35.7313 6.868 36.1393 6.628C36.5473 6.38 37.0033 6.256 37.5073 6.256V8.068H37.0153C35.7753 8.068 35.1553 8.644 35.1553 9.796V13H33.4633V6.352H35.1553V7.624ZM44.6958 9.424C44.6958 9.592 44.6758 9.784 44.6358 10H39.7638C39.7878 10.592 39.9478 11.028 40.2438 11.308C40.5398 11.588 40.9078 11.728 41.3478 11.728C41.7398 11.728 42.0638 11.632 42.3198 11.44C42.5838 11.248 42.7518 10.988 42.8238 10.66H44.6118C44.5238 11.124 44.3358 11.54 44.0478 11.908C43.7598 12.276 43.3878 12.564 42.9318 12.772C42.4838 12.98 41.9838 13.084 41.4318 13.084C40.7838 13.084 40.2078 12.948 39.7038 12.676C39.1998 12.396 38.8078 12 38.5278 11.488C38.2478 10.976 38.1078 10.372 38.1078 9.676C38.1078 8.98 38.2478 8.376 38.5278 7.864C38.8078 7.344 39.1998 6.948 39.7038 6.676C40.2078 6.404 40.7838 6.268 41.4318 6.268C42.0878 6.268 42.6598 6.404 43.1478 6.676C43.6438 6.948 44.0238 7.324 44.2878 7.804C44.5598 8.276 44.6958 8.816 44.6958 9.424ZM42.9918 9.256C43.0158 8.712 42.8718 8.3 42.5598 8.02C42.2558 7.74 41.8798 7.6 41.4318 7.6C40.9758 7.6 40.5918 7.74 40.2798 8.02C39.9678 8.3 39.7958 8.712 39.7638 9.256H42.9918ZM48.5009 6.268C49.0609 6.268 49.5369 6.4 49.9289 6.664C50.3289 6.928 50.6169 7.284 50.7929 7.732V4.12H52.4729V13H50.7929V11.608C50.6169 12.056 50.3289 12.416 49.9289 12.688C49.5369 12.952 49.0609 13.084 48.5009 13.084C47.9409 13.084 47.4369 12.948 46.9889 12.676C46.5409 12.404 46.1889 12.012 45.9329 11.5C45.6849 10.98 45.5609 10.372 45.5609 9.676C45.5609 8.98 45.6849 8.376 45.9329 7.864C46.1889 7.344 46.5409 6.948 46.9889 6.676C47.4369 6.404 47.9409 6.268 48.5009 6.268ZM49.0289 7.744C48.5009 7.744 48.0769 7.916 47.7569 8.26C47.4369 8.604 47.2769 9.076 47.2769 9.676C47.2769 10.276 47.4369 10.748 47.7569 11.092C48.0769 11.428 48.5009 11.596 49.0289 11.596C49.5409 11.596 49.9609 11.424 50.2889 11.08C50.6249 10.728 50.7929 10.26 50.7929 9.676C50.7929 9.084 50.6249 8.616 50.2889 8.272C49.9609 7.92 49.5409 7.744 49.0289 7.744ZM60.5916 6.268C61.1516 6.268 61.6556 6.404 62.1036 6.676C62.5516 6.948 62.8996 7.344 63.1476 7.864C63.4036 8.376 63.5316 8.98 63.5316 9.676C63.5316 10.372 63.4036 10.98 63.1476 11.5C62.8996 12.012 62.5516 12.404 62.1036 12.676C61.6556 12.948 61.1516 13.084 60.5916 13.084C60.0316 13.084 59.5516 12.952 59.1516 12.688C58.7596 12.416 58.4796 12.056 58.3116 11.608V13H56.6196V4.12H58.3116V7.732C58.4796 7.284 58.7596 6.928 59.1516 6.664C59.5516 6.4 60.0316 6.268 60.5916 6.268ZM60.0636 7.744C59.5516 7.744 59.1276 7.92 58.7916 8.272C58.4636 8.616 58.2996 9.084 58.2996 9.676C58.2996 10.26 58.4636 10.728 58.7916 11.08C59.1276 11.424 59.5516 11.596 60.0636 11.596C60.5916 11.596 61.0156 11.428 61.3356 11.092C61.6556 10.748 61.8156 10.276 61.8156 9.676C61.8156 9.076 61.6556 8.604 61.3356 8.26C61.0156 7.916 60.5916 7.744 60.0636 7.744ZM65.8689 6.352L67.6809 10.864L69.3609 6.352H71.2209L67.1529 16.168H65.2809L66.7809 12.808L63.9849 6.352H65.8689Z" fill="#A7ABB9"></path></g></svg>