<svg xmlns:xlink="http://www.w3.org/1999/xlink" xmlns="http://www.w3.org/2000/svg" class="h-full w-full" viewBox="0 0 28 21" width="49"  height="36.75" ><path d="M9.10171 16.2039C13.5007 16.2039 17.0667 12.6379 17.0667 8.23892C17.0667 3.83997 13.5007 0.273926 9.10171 0.273926C4.70277 0.273926 1.13672 3.83997 1.13672 8.23892C1.13672 12.6379 4.70277 16.2039 9.10171 16.2039Z" fill="#EE0005"></path><path d="M18.9982 16.2039C23.3971 16.2039 26.9632 12.6379 26.9632 8.23892C26.9632 3.83997 23.3971 0.273926 18.9982 0.273926C14.5993 0.273926 11.0332 3.83997 11.0332 8.23892C11.0332 12.6379 14.5993 16.2039 18.9982 16.2039Z" fill="#F9A000"></path><path d="M11.0332 8.23875C11.0332 10.7678 12.2121 13.0213 14.0502 14.4803C15.8882 13.0212 17.0672 10.7678 17.0672 8.23875C17.0672 5.7097 15.8883 3.45619 14.0502 1.99719C12.2122 3.45631 11.0332 5.70976 11.0332 8.23875Z" fill="#FF6300"></path><path d="M4.62328 20.4109V18.6659C4.62328 18.1709 4.35828 17.9359 3.91328 17.9359C3.54328 17.9359 3.22328 18.1559 3.08328 18.3759C2.99328 18.1009 2.76828 17.9359 2.41328 17.9359C2.04328 17.9359 1.72328 18.1659 1.62328 18.3109V17.9959H0.988281V20.4109H1.62328V18.7859C1.71828 18.6509 1.90328 18.5009 2.12328 18.5009C2.38328 18.5009 2.48328 18.6609 2.48328 18.8859V20.4109H3.12328V18.7809C3.21328 18.6509 3.39828 18.5009 3.62328 18.5009C3.88328 18.5009 3.98328 18.6609 3.98328 18.8859V20.4109H4.62328Z" fill="#170C4A"></path><path d="M7.33109 20.4109V18.8509C7.33109 18.1559 6.82609 17.9359 6.27609 17.9359C5.89609 17.9359 5.51609 18.0559 5.22109 18.3159L5.46109 18.7409C5.66609 18.5509 5.90609 18.4559 6.16609 18.4559C6.48609 18.4559 6.69609 18.6159 6.69609 18.8609V19.1859C6.53609 18.9959 6.25109 18.8909 5.93109 18.8909C5.54609 18.8909 5.09109 19.1059 5.09109 19.6709C5.09109 20.2109 5.54609 20.4709 5.93109 20.4709C6.24609 20.4709 6.53109 20.3559 6.69609 20.1609V20.4109H7.33109ZM6.18609 20.0409C5.93609 20.0409 5.73109 19.9109 5.73109 19.6859C5.73109 19.4509 5.93609 19.3209 6.18609 19.3209C6.39109 19.3209 6.59109 19.3909 6.69609 19.5309V19.8309C6.59109 19.9709 6.39109 20.0409 6.18609 20.0409Z" fill="#170C4A"></path><path d="M8.83094 20.4709C9.50094 20.4709 9.87594 20.1359 9.87594 19.6959C9.87594 18.7209 8.44594 19.0209 8.44594 18.6609C8.44594 18.5259 8.59594 18.4209 8.82594 18.4209C9.12094 18.4209 9.39594 18.5459 9.54094 18.7009L9.79594 18.2659C9.55594 18.0759 9.23094 17.9359 8.82094 17.9359C8.18594 17.9359 7.83094 18.2909 7.83094 18.6959C7.83094 19.6459 9.26594 19.3209 9.26594 19.7209C9.26594 19.8709 9.13594 19.9809 8.86094 19.9809C8.56094 19.9809 8.20094 19.8159 8.02594 19.6509L7.75094 20.0959C8.00594 20.3309 8.41094 20.4709 8.83094 20.4709Z" fill="#170C4A"></path><path d="M11.1537 20.4709C11.4187 20.4709 11.5888 20.4009 11.6838 20.3159L11.5487 19.8359C11.5137 19.8709 11.4238 19.9059 11.3288 19.9059C11.1888 19.9059 11.1087 19.7909 11.1087 19.6409V18.5509H11.5987V17.9959H11.1087V17.3359H10.4688V17.9959H10.0688V18.5509H10.4688V19.8109C10.4688 20.2409 10.7087 20.4709 11.1537 20.4709Z" fill="#170C4A"></path><path d="M13.1682 20.4709C13.5432 20.4709 13.9232 20.3559 14.1632 20.1359L13.8832 19.7259C13.7282 19.8759 13.4432 19.9659 13.2382 19.9659C12.8282 19.9659 12.5832 19.7109 12.5432 19.4059H14.3382V19.2659C14.3382 18.4759 13.8482 17.9359 13.1282 17.9359C12.3932 17.9359 11.8782 18.5009 11.8782 19.2009C11.8782 19.9759 12.4332 20.4709 13.1682 20.4709ZM13.7232 18.9759H12.5332C12.5632 18.7359 12.7332 18.4409 13.1282 18.4409C13.5482 18.4409 13.7082 18.7459 13.7232 18.9759Z" fill="#170C4A"></path><path d="M15.4319 20.4109V18.8159C15.5369 18.6609 15.8169 18.5409 16.0269 18.5409C16.0969 18.5409 16.1569 18.5459 16.2019 18.5559V17.9359C15.9019 17.9359 15.6019 18.1109 15.4319 18.3259V17.9959H14.7969V20.4109H15.4319Z" fill="#170C4A"></path><path d="M19.0029 20.4709C19.4979 20.4709 19.7979 20.2559 19.9579 20.0309L19.5429 19.6459C19.4279 19.8059 19.2529 19.9059 19.0329 19.9059C18.6479 19.9059 18.3779 19.6209 18.3779 19.2009C18.3779 18.7809 18.6479 18.5009 19.0329 18.5009C19.2529 18.5009 19.4279 18.5909 19.5429 18.7609L19.9579 18.3709C19.7979 18.1509 19.4979 17.9359 19.0029 17.9359C18.2579 17.9359 17.7229 18.4609 17.7229 19.2009C17.7229 19.9459 18.2579 20.4709 19.0029 20.4709Z" fill="#170C4A"></path><path d="M22.458 20.4109V18.8509C22.458 18.1559 21.953 17.9359 21.403 17.9359C21.023 17.9359 20.643 18.0559 20.348 18.3159L20.588 18.7409C20.793 18.5509 21.033 18.4559 21.293 18.4559C21.613 18.4559 21.823 18.6159 21.823 18.8609V19.1859C21.663 18.9959 21.378 18.8909 21.058 18.8909C20.673 18.8909 20.218 19.1059 20.218 19.6709C20.218 20.2109 20.673 20.4709 21.058 20.4709C21.373 20.4709 21.658 20.3559 21.823 20.1609V20.4109H22.458ZM21.313 20.0409C21.063 20.0409 20.858 19.9109 20.858 19.6859C20.858 19.4509 21.063 19.3209 21.313 19.3209C21.518 19.3209 21.718 19.3909 21.823 19.5309V19.8309C21.718 19.9709 21.518 20.0409 21.313 20.0409Z" fill="#170C4A"></path><path d="M23.7229 20.4109V18.8159C23.8279 18.6609 24.1079 18.5409 24.3179 18.5409C24.3879 18.5409 24.4479 18.5459 24.4929 18.5559V17.9359C24.1929 17.9359 23.8929 18.1109 23.7229 18.3259V17.9959H23.0879V20.4109H23.7229Z" fill="#170C4A"></path><path d="M27.1896 20.4109V17.0759H26.5496V18.3059C26.3596 18.0609 26.0896 17.9359 25.8046 17.9359C25.1896 17.9359 24.7346 18.4159 24.7346 19.2059C24.7346 20.0109 25.1946 20.4709 25.8046 20.4709C26.0946 20.4709 26.3596 20.3409 26.5496 20.1009V20.4109H27.1896ZM25.9996 19.9059C25.6396 19.9059 25.3896 19.6209 25.3896 19.2059C25.3896 18.7859 25.6396 18.5009 25.9996 18.5009C26.2146 18.5009 26.4446 18.6159 26.5496 18.7759V19.6309C26.4446 19.7909 26.2146 19.9059 25.9996 19.9059Z" fill="#170C4A"></path></svg>