<svg xmlns:xlink="http://www.w3.org/1999/xlink" xmlns="http://www.w3.org/2000/svg" class="h-full w-full" viewBox="0 0 512 124.046" width="50"  height="12.1138671875" ><path fill-rule="evenodd" clip-rule="evenodd" fill="#009DE2" d="M44.673,29.194h34.991c18.784,0,25.858,9.509,24.766,23.502 c-1.801,23.068-15.749,35.824-34.248,35.824h-9.34c-2.535,0-4.241,1.676-4.932,6.23l-4.007,26.446 c-0.26,1.717-1.163,2.726-2.521,2.849h-21.94c-2.064,0-2.799-1.58-2.258-5l13.398-84.833 C39.119,30.813,40.979,29.194,44.673,29.194z"></path><path fill-rule="evenodd" clip-rule="evenodd" fill="#113984" d="M196.568,27.626c11.807,0,22.698,6.401,21.207,22.365 c-1.768,18.923-11.966,29.463-28.007,29.506h-13.993c-2.017,0-2.987,1.64-3.516,5.016l-2.701,17.224 c-0.407,2.6-1.74,3.884-3.715,3.884h-13.031c-2.079,0-2.803-1.328-2.34-4.297l10.772-69.038c0.53-3.396,1.828-4.658,4.13-4.658 H196.568L196.568,27.626z M175.341,64.583l10.615,0.002c6.636-0.25,11.049-4.847,11.492-13.139c0.274-5.122-3.184-8.785-8.689-8.76 l-9.993,0.045L175.341,64.583L175.341,64.583z M253.199,100.328c1.189-1.08,2.405-1.646,2.229-0.31l-0.423,3.2 c-0.221,1.667,0.444,2.559,2,2.559h11.577c1.947,0,2.899-0.79,3.379-3.804l7.134-44.778c0.358-2.25-0.186-3.354-1.896-3.354 h-12.728c-1.148,0-1.704,0.645-2.005,2.398l-0.472,2.756c-0.246,1.439-0.904,1.688-1.516,0.24 c-2.162-5.115-7.67-7.408-15.395-7.249c-17.858,0.367-29.897,13.923-31.184,31.3c-0.996,13.442,8.638,23.998,21.331,23.998 C244.44,107.283,248.56,104.537,253.199,100.328L253.199,100.328z M243.511,93.449c-7.687,0-13.044-6.13-11.926-13.647 c1.119-7.517,8.3-13.647,15.986-13.647s13.044,6.13,11.926,13.647C258.379,87.319,251.198,93.449,243.511,93.449L243.511,93.449z M301.765,53.698h-11.696c-2.424,0-3.409,1.773-2.638,4.029l14.575,42.685l-14.362,20.301c-1.199,1.694-0.274,3.245,1.417,3.245 h13.197c1.97,0,2.931-0.502,3.922-1.925l44.828-64.305c1.381-1.981,0.729-4.054-1.534-4.056l-12.477-0.013 c-2.142-0.002-3.001,0.845-4.23,2.628l-18.698,27.127l-8.319-27.174C305.236,54.563,304.014,53.698,301.765,53.698z"></path><path fill-rule="evenodd" clip-rule="evenodd" fill="#009DE2" d="M397.66,27.626c11.808,0,22.698,6.401,21.208,22.365 c-1.768,18.923-11.967,29.463-28.008,29.506h-13.992c-2.019,0-2.987,1.64-3.517,5.016l-2.7,17.224 c-0.408,2.6-1.74,3.884-3.716,3.884h-13.032c-2.077,0-2.803-1.328-2.339-4.297l10.771-69.038c0.53-3.396,1.828-4.658,4.13-4.658 H397.66L397.66,27.626z M376.433,64.583l10.615,0.002c6.636-0.25,11.049-4.847,11.493-13.139c0.273-5.122-3.185-8.785-8.691-8.76 l-9.992,0.045L376.433,64.583L376.433,64.583z M454.291,100.328c1.189-1.08,2.405-1.646,2.229-0.31l-0.423,3.2 c-0.221,1.667,0.444,2.559,2,2.559h11.576c1.947,0,2.9-0.79,3.38-3.804l7.134-44.778c0.358-2.25-0.186-3.354-1.896-3.354h-12.727 c-1.149,0-1.705,0.645-2.005,2.398l-0.473,2.756c-0.246,1.439-0.904,1.688-1.517,0.24c-2.161-5.115-7.669-7.408-15.395-7.249 c-17.857,0.367-29.896,13.923-31.185,31.3c-0.995,13.442,8.639,23.998,21.331,23.998 C445.532,107.283,449.653,104.537,454.291,100.328L454.291,100.328z M444.604,93.449c-7.686,0-13.044-6.13-11.927-13.647 c1.12-7.517,8.301-13.647,15.987-13.647s13.044,6.13,11.926,13.647S452.291,93.449,444.604,93.449L444.604,93.449z M498.005,105.856h-13.362c-1.062,0-1.799-0.832-1.638-1.848l11.751-74.376c0.16-1.017,1.16-1.849,2.222-1.849h13.362 c1.062,0,1.799,0.832,1.639,1.849l-11.752,74.376C500.065,105.025,499.066,105.856,498.005,105.856z"></path><path fill-rule="evenodd" clip-rule="evenodd" fill="#113984" d="M22.799,0h35.025c9.865,0,21.564,0.32,29.392,7.223 c5.228,4.611,7.972,11.958,7.338,19.845c-2.147,26.744-18.146,41.724-39.598,41.724H37.682c-2.94,0-4.889,1.948-5.719,7.225 l-4.82,30.665c-0.313,1.99-1.175,3.162-2.75,3.303H2.817c-2.394,0-3.245-1.831-2.619-5.798L15.735,5.819 C16.357,1.877,18.514,0,22.799,0z"></path><path fill-rule="evenodd" clip-rule="evenodd" fill="#172C70" d="M32.465,72.926l6.117-38.713c0.537-3.4,2.396-5.018,6.091-5.018 h34.991c5.792,0,10.472,0.904,14.14,2.571c-3.516,23.802-18.911,37.027-39.072,37.027H37.458 C35.184,68.792,33.486,69.955,32.465,72.926z"></path></svg>