<svg xmlns:xlink="http://www.w3.org/1999/xlink" xmlns="http://www.w3.org/2000/svg" width="80" height="27" viewBox="0 0 80 27" fill="none">
<path fill-rule="evenodd" clip-rule="evenodd" d="M6.9617 0.403604L8.3938 3.47596C8.49339 3.68965 8.68594 3.83771 8.90869 3.87192L12.1111 4.36463C12.6721 4.45101 12.8959 5.18068 12.4901 5.59935L10.1729 7.99084C10.0118 8.15713 9.9382 8.39689 9.97634 8.63161L10.5233 12.0085C10.6192 12.5999 10.0328 13.0509 9.53111 12.7718L6.66691 11.1776C6.46773 11.0668 6.22962 11.0668 6.03045 11.1776L3.16625 12.7718C2.6646 13.0511 2.0782 12.5999 2.17408 12.0085L2.72102 8.63161C2.75916 8.39689 2.68552 8.15713 2.52449 7.99084L0.207224 5.59935C-0.198542 5.1804 0.0252652 4.45073 0.58624 4.36463L3.78867 3.87192C4.01142 3.83771 4.20397 3.68965 4.30356 3.47596L5.73566 0.403604C5.98622 -0.134535 6.71088 -0.134535 6.9617 0.403604ZM23.6754 0.403604L25.1075 3.47596C25.2071 3.68965 25.3996 3.83771 25.6224 3.87192L28.8248 4.36463C29.3858 4.45101 29.6096 5.18068 29.2038 5.59935L26.8865 7.99084C26.7255 8.15713 26.6519 8.39689 26.69 8.63161L27.237 12.0085C27.3328 12.5999 26.7464 13.0509 26.2448 12.7718L23.3806 11.1776C23.1814 11.0668 22.9433 11.0668 22.7441 11.1776L19.8799 12.7718C19.3783 13.0511 18.7919 12.5999 18.8878 12.0085L19.4347 8.63161C19.4728 8.39689 19.3992 8.15713 19.2382 7.99084L16.9209 5.59935C16.5151 5.1804 16.7389 4.45073 17.2999 4.36463L20.5023 3.87192C20.7251 3.83771 20.9177 3.68965 21.0172 3.47596L22.4493 0.403604C22.6999 -0.134535 23.4246 -0.134535 23.6754 0.403604ZM41.8214 3.47596L40.3893 0.403604C40.1385 -0.134535 39.4138 -0.134535 39.1633 0.403604L37.7312 3.47596C37.6316 3.68965 37.439 3.83771 37.2163 3.87192L34.0139 4.36463C33.4529 4.45073 33.2291 5.1804 33.6348 5.59935L35.9521 7.99084C36.1131 8.15713 36.1868 8.39689 36.1486 8.63161L35.6017 12.0085C35.5058 12.5999 36.0922 13.0511 36.5939 12.7718L39.4581 11.1776C39.6572 11.0668 39.8953 11.0668 40.0945 11.1776L42.9587 12.7718C43.4604 13.0509 44.0468 12.5999 43.9509 12.0085L43.4039 8.63161C43.3658 8.39689 43.4394 8.15713 43.6005 7.99084L45.9177 5.59935C46.3235 5.18068 46.0997 4.45101 45.5387 4.36463L42.3363 3.87192C42.1135 3.83771 41.921 3.68965 41.8214 3.47596ZM57.103 0.403604L58.5351 3.47596C58.6347 3.68965 58.8272 3.83771 59.05 3.87192L62.2524 4.36463C62.8134 4.45101 63.0372 5.18068 62.6314 5.59935L60.3142 7.99084C60.1531 8.15713 60.0795 8.39689 60.1176 8.63161L60.6646 12.0085C60.7605 12.5999 60.1741 13.0509 59.6724 12.7718L56.8082 11.1776C56.609 11.0668 56.3709 11.0668 56.1717 11.1776L53.3075 12.7718C52.8059 13.0511 52.2195 12.5999 52.3154 12.0085L52.8623 8.63161C52.9005 8.39689 52.8268 8.15713 52.6658 7.99084L50.3485 5.59935C49.9428 5.1804 50.1666 4.45073 50.7275 4.36463L53.93 3.87192C54.1527 3.83771 54.3453 3.68965 54.4449 3.47596L55.877 0.403604C56.1275 -0.134535 56.8522 -0.134535 57.103 0.403604ZM75.249 3.47596L73.8169 0.403604C73.5661 -0.134535 72.8415 -0.134535 72.5909 0.403604L71.1588 3.47596C71.0592 3.68965 70.8667 3.83771 70.6439 3.87192L67.4415 4.36463C66.8805 4.45073 66.6567 5.1804 67.0625 5.59935L69.3797 7.99084C69.5408 8.15713 69.6144 8.39689 69.5763 8.63161L69.0293 12.0085C68.9334 12.5999 69.5198 13.0511 70.0215 12.7718L72.8857 11.1776C73.0849 11.0668 73.323 11.0668 73.5221 11.1776L76.3864 12.7718C76.888 13.0509 77.4744 12.5999 77.3785 12.0085L76.8316 8.63161C76.7934 8.39689 76.8671 8.15713 77.0281 7.99084L79.3454 5.59935C79.7511 5.18068 79.5273 4.45101 78.9664 4.36463L75.7639 3.87192C75.5412 3.83771 75.3486 3.68965 75.249 3.47596Z" fill="#FFAA45"/>
<path fill-rule="evenodd" clip-rule="evenodd" d="M23.6754 14.5462L25.1075 17.6185C25.2071 17.8322 25.3996 17.9803 25.6224 18.0145L28.8248 18.5072C29.3858 18.5936 29.6096 19.3233 29.2038 19.7419L26.8865 22.1334C26.7255 22.2997 26.6519 22.5395 26.69 22.7742L27.237 26.1511C27.3328 26.7425 26.7464 27.1934 26.2448 26.9144L23.3806 25.3202C23.1814 25.2094 22.9433 25.2094 22.7441 25.3202L19.8799 26.9144C19.3783 27.1937 18.7919 26.7425 18.8878 26.1511L19.4347 22.7742C19.4728 22.5395 19.3992 22.2997 19.2382 22.1334L16.9209 19.7419C16.5151 19.323 16.7389 18.5933 17.2999 18.5072L20.5023 18.0145C20.7251 17.9803 20.9177 17.8322 21.0172 17.6185L22.4493 14.5462C22.6999 14.008 23.4246 14.008 23.6754 14.5462ZM6.9617 14.5465L8.3938 17.6188C8.49339 17.8325 8.68594 17.9806 8.90869 18.0148L12.1111 18.5075C12.6721 18.5939 12.8959 19.3235 12.4901 19.7422L10.1729 22.1337C10.0118 22.3 9.9382 22.5398 9.97634 22.7745L10.5233 26.1514C10.6192 26.7428 10.0328 27.1937 9.53111 26.9147L6.66691 25.3205C6.46773 25.2097 6.22962 25.2097 6.03045 25.3205L3.16625 26.9147C2.6646 27.194 2.0782 26.7428 2.17408 26.1514L2.72102 22.7745C2.75916 22.5398 2.68552 22.3 2.52449 22.1337L0.207224 19.7422C-0.198542 19.3233 0.0252652 18.5936 0.58624 18.5075L3.78867 18.0148C4.01142 17.9806 4.20397 17.8325 4.30356 17.6188L5.73566 14.5465C5.98622 14.0083 6.71088 14.0083 6.9617 14.5465ZM41.8214 17.6185L40.3893 14.5462C40.1385 14.008 39.4138 14.008 39.1633 14.5462L37.7312 17.6185C37.6316 17.8322 37.439 17.9803 37.2163 18.0145L34.0139 18.5072C33.4529 18.5933 33.2291 19.323 33.6348 19.7419L35.9521 22.1334C36.1131 22.2997 36.1868 22.5395 36.1486 22.7742L35.6017 26.1511C35.5058 26.7425 36.0922 27.1937 36.5939 26.9144L39.4581 25.3202C39.6572 25.2094 39.8953 25.2094 40.0945 25.3202L42.9587 26.9144C43.4604 27.1934 44.0468 26.7425 43.9509 26.1511L43.4039 22.7742C43.3658 22.5395 43.4394 22.2997 43.6005 22.1334L45.9177 19.7419C46.3235 19.3233 46.0997 18.5936 45.5387 18.5072L42.3363 18.0145C42.1135 17.9803 41.921 17.8322 41.8214 17.6185ZM57.103 14.5462L58.5351 17.6185C58.6347 17.8322 58.8272 17.9803 59.05 18.0145L62.2524 18.5072C62.8134 18.5936 63.0372 19.3233 62.6314 19.7419L60.3142 22.1334C60.1531 22.2997 60.0795 22.5395 60.1176 22.7742L60.6646 26.1511C60.7605 26.7425 60.1741 27.1934 59.6724 26.9144L56.8082 25.3202C56.609 25.2094 56.3709 25.2094 56.1717 25.3202L53.3075 26.9144C52.8059 27.1937 52.2195 26.7425 52.3154 26.1511L52.8623 22.7742C52.9005 22.5395 52.8268 22.2997 52.6658 22.1334L50.3485 19.7419C49.9428 19.323 50.1666 18.5933 50.7275 18.5072L53.93 18.0145C54.1527 17.9803 54.3453 17.8322 54.4449 17.6185L55.877 14.5462C56.1275 14.008 56.8522 14.008 57.103 14.5462ZM75.249 17.6185L73.8169 14.5462C73.5661 14.008 72.8415 14.008 72.5909 14.5462L71.1588 17.6185C71.0592 17.8322 70.8667 17.9803 70.6439 18.0145L67.4415 18.5072C66.8805 18.5933 66.6567 19.323 67.0625 19.7419L69.3797 22.1334C69.5408 22.2997 69.6144 22.5395 69.5763 22.7742L69.0293 26.1511C68.9334 26.7425 69.5198 27.1937 70.0215 26.9144L72.8857 25.3202C73.0849 25.2094 73.323 25.2094 73.5221 25.3202L76.3864 26.9144C76.888 27.1934 77.4744 26.7425 77.3785 26.1511L76.8316 22.7742C76.7934 22.5395 76.8671 22.2997 77.0281 22.1334L79.3454 19.7419C79.7511 19.3233 79.5273 18.5936 78.9664 18.5072L75.7639 18.0145C75.5412 17.9803 75.3486 17.8322 75.249 17.6185Z" fill="#E0E0E0"/>
</svg>