<svg xmlns:xlink="http://www.w3.org/1999/xlink" xmlns="http://www.w3.org/2000/svg" class="h-full w-full" viewBox="0 0 62 20" width="49"  height="15.806451612903226" ><path d="M22.0527 19.3665L25.1183 1.2644H30.0815L27.0161 19.3665H22.0527Z" fill="#293688"></path><path d="M44.6853 1.73242C43.7017 1.36556 42.1607 0.972656 40.2362 0.972656C35.3311 0.972656 31.876 3.42845 31.8462 6.94679C31.819 9.5473 34.3126 10.9979 36.1965 11.8645C38.1284 12.75 38.7781 13.3182 38.7686 14.1096C38.7566 15.323 37.2251 15.8777 35.798 15.8777C33.8117 15.877 32.7559 15.6031 31.1257 14.9275L30.4861 14.6391L29.7891 18.6915C30.9487 19.197 33.093 19.6354 35.3191 19.6575C40.536 19.6564 43.9242 17.231 43.9622 13.4728C43.9811 11.4137 42.6584 9.84671 39.7947 8.5544C38.0594 7.71805 36.9967 7.15947 37.0082 6.31061C37.0082 5.55846 37.9083 4.75389 39.8509 4.75389C41.4741 4.72853 42.6501 5.08035 43.5668 5.44722L44.0109 5.65601L44.6853 1.73242Z" fill="#293688"></path><path d="M53.1473 1.2644C51.9582 1.2644 51.099 1.62755 50.5764 2.80608L43.2207 19.3672H48.4757L49.4973 16.5932H55.7757L56.359 19.3672H61.0307L56.9436 1.26491H53.1475L53.1473 1.2644ZM50.8916 12.9711C51.3015 11.9287 52.8684 7.91158 52.8684 7.91158C52.84 7.95908 53.2763 6.86407 53.5269 6.18461L53.8628 7.74455C53.8628 7.74455 54.8123 12.0658 55.0116 12.9716H50.8916V12.9711Z" fill="#293688"></path><path d="M13.0019 13.6732L12.5647 11.1915C11.6589 8.29873 8.84756 5.16872 5.69727 3.6005L10.0824 19.3665H15.3385L23.2212 1.2644H17.9663L13.0019 13.6732Z" fill="#293688"></path><path d="M0.30127 1.2644V1.55671C6.52917 3.0546 10.8529 6.84142 12.5647 11.1917L10.765 2.80929C10.4646 1.66373 9.5542 1.3043 8.47693 1.26457L0.30127 1.2644Z" fill="#F7981D"></path></svg>