
<svg width="238" height="238" viewBox="0 0 238 238" fill="none" xmlns="http://www.w3.org/2000/svg">
<rect width="238" height="238" fill="white"/>
<path d="M171.12 25.3393C178.416 35.5479 170.167 52.3131 180.91 59.9371C191.37 67.3552 203.987 54.8824 213.838 61.2636C228.445 70.725 226.265 114.754 205.337 142.314C199.047 150.602 193.748 153.857 191.484 163.181C186.628 183.202 204.567 194.89 201.281 204.801C193.878 227.116 76.6665 247.007 28.8564 180.678C6.52573 149.702 2.75946 104.667 22.0558 70.2371C56.9204 8.01761 154.759 2.42922 171.12 25.3393Z" fill="#F4F7FA"/>
<path d="M183.453 185.814C183.453 189.646 185.808 192.754 188.72 192.754C191.633 192.754 193.987 189.646 193.987 185.814C193.987 181.982 191.633 178.875 188.72 178.875C185.822 178.875 183.453 181.982 183.453 185.814Z" fill="url(#paint0_linear)"/>
<path d="M181.989 186.595C181.989 190.427 184.344 193.534 187.256 193.534C190.169 193.534 192.524 190.427 192.524 186.595C192.524 182.763 190.169 179.655 187.256 179.655C184.344 179.655 181.989 182.763 181.989 186.595Z" fill="url(#paint1_linear)"/>
<path d="M185.056 186.733C185.056 188.336 186.045 189.645 187.271 189.645C188.497 189.645 189.487 188.349 189.487 186.733C189.487 185.131 188.497 183.821 187.271 183.821C186.045 183.835 185.056 185.131 185.056 186.733Z" fill="url(#paint2_linear)"/>
<path d="M188.733 178.136V185.758C188.733 186.872 187.827 187.778 186.713 187.778C186.072 187.778 185.458 187.472 185.082 186.942L178.227 177.564L188.733 178.136Z" fill="#C2C2C2"/>
<path d="M126.987 179.737C126.987 183.569 129.342 186.677 132.255 186.677C135.167 186.677 137.522 183.569 137.522 179.737C137.522 175.905 135.167 172.798 132.255 172.798C129.356 172.798 126.987 175.905 126.987 179.737Z" fill="url(#paint3_linear)"/>
<path d="M125.523 180.518C125.523 184.35 127.878 187.457 130.791 187.457C133.703 187.457 136.058 184.35 136.058 180.518C136.058 176.686 133.703 173.578 130.791 173.578C127.878 173.578 125.523 176.686 125.523 180.518Z" fill="url(#paint4_linear)"/>
<path d="M128.59 180.656C128.59 182.259 129.579 183.568 130.805 183.568C132.032 183.568 133.021 182.273 133.021 180.656C133.021 179.054 132.032 177.744 130.805 177.744C129.579 177.744 128.59 179.054 128.59 180.656Z" fill="url(#paint5_linear)"/>
<path d="M132.27 172.048V179.67C132.27 180.784 131.364 181.69 130.25 181.69C129.609 181.69 128.996 181.384 128.619 180.854L121.764 171.476L132.27 172.048Z" fill="#C2C2C2"/>
<path d="M189.51 179.321C190.207 179.321 190.806 178.805 190.876 178.095C190.959 177.342 190.416 176.646 189.649 176.562L122.792 169.023C119.155 168.396 116.118 165.637 115.142 161.987L87.1344 57.7159C85.6434 52.17 80.7942 48.1708 75.0533 47.7668L54.7231 46.5545C53.9567 46.4987 53.3018 47.084 53.26 47.8504C53.2182 48.6167 53.7895 49.2717 54.5559 49.3135L74.8861 50.5257C79.4287 50.8323 83.2885 54.0093 84.4729 58.4265L112.481 162.697C113.735 167.379 117.637 170.932 122.416 171.755L189.357 179.293C189.412 179.307 189.454 179.321 189.51 179.321Z" fill="white"/>
<path d="M142.998 138.271C143.597 138.271 144.154 137.881 144.322 137.268L160.068 82.1715C160.277 81.4329 159.859 80.6665 159.12 80.4575C158.382 80.2485 157.615 80.6805 157.406 81.4051L141.66 136.502C141.451 137.24 141.869 138.006 142.608 138.215C142.747 138.257 142.873 138.271 142.998 138.271Z" fill="white"/>
<path d="M126.89 135.972C127.544 135.972 128.13 135.498 128.255 134.829L137.967 80.2622C138.107 79.5097 137.605 78.7991 136.853 78.6597C136.1 78.5204 135.376 79.022 135.25 79.7745L125.538 134.341C125.399 135.094 125.9 135.804 126.653 135.944C126.722 135.958 126.806 135.972 126.89 135.972Z" fill="white"/>
<path d="M116.887 134.173C116.901 134.173 116.928 134.173 116.942 134.173C117.709 134.146 118.294 133.491 118.266 132.738L116.023 78.7426C115.995 77.9762 115.382 77.377 114.587 77.4188C113.821 77.4467 113.236 78.1016 113.264 78.8541L115.507 132.85C115.535 133.588 116.148 134.173 116.887 134.173Z" fill="white"/>
<path d="M164.958 140.291C165.53 140.291 166.073 139.929 166.268 139.344L184.759 84.2332C184.996 83.5086 184.606 82.7283 183.881 82.4774C183.157 82.2406 182.376 82.6307 182.125 83.3553L163.635 138.466C163.398 139.19 163.788 139.971 164.513 140.222C164.666 140.263 164.819 140.291 164.958 140.291Z" fill="white"/>
<path d="M7.1522 54.12C7.22188 54.12 7.30548 54.12 7.38909 54.1061L52.8847 50.3718C54.4035 50.2464 55.5462 48.9087 55.4208 47.3899C55.2953 45.8711 53.9576 44.7285 52.4388 44.8539L6.92925 48.6021C5.41041 48.7276 4.26779 50.0652 4.3932 51.584C4.51861 53.0332 5.7309 54.12 7.1522 54.12Z" fill="url(#paint6_linear)"/>
<path d="M133.918 204.738C133.918 208.57 136.273 211.678 139.185 211.678C142.097 211.678 144.452 208.57 144.452 204.738C144.452 200.906 142.097 197.799 139.185 197.799C136.287 197.799 133.918 200.906 133.918 204.738Z" fill="url(#paint7_linear)"/>
<path d="M132.454 205.517C132.454 209.349 134.809 212.457 137.721 212.457C140.634 212.457 142.988 209.349 142.988 205.517C142.988 201.685 140.634 198.578 137.721 198.578C134.809 198.578 132.454 201.685 132.454 205.517Z" fill="url(#paint8_linear)"/>
<path d="M135.521 205.657C135.521 207.26 136.51 208.569 137.736 208.569C138.962 208.569 139.952 207.274 139.952 205.657C139.952 204.055 138.962 202.745 137.736 202.745C136.51 202.745 135.521 204.055 135.521 205.657Z" fill="url(#paint9_linear)"/>
<path d="M139.195 197.045V204.667C139.195 205.782 138.289 206.688 137.174 206.688C136.533 206.688 135.92 206.381 135.544 205.852L128.688 196.474L139.195 197.045Z" fill="#BBC3CC"/>
<path d="M85.0469 199.848C85.0469 203.68 87.4018 206.788 90.3141 206.788C93.2263 206.788 95.5812 203.68 95.5812 199.848C95.5812 196.016 93.2263 192.909 90.3141 192.909C87.4018 192.909 85.0469 196.016 85.0469 199.848Z" fill="url(#paint10_linear)"/>
<path d="M83.5703 200.628C83.5703 204.46 85.9252 207.568 88.8375 207.568C91.7498 207.568 94.1047 204.46 94.1047 200.628C94.1047 196.797 91.7498 193.689 88.8375 193.689C85.9252 193.689 83.5703 196.797 83.5703 200.628Z" fill="url(#paint11_linear)"/>
<path d="M86.6367 200.767C86.6367 202.369 87.6261 203.679 88.8523 203.679C90.0785 203.679 91.0679 202.383 91.0679 200.767C91.0679 199.165 90.0785 197.855 88.8523 197.855C87.6261 197.855 86.6367 199.165 86.6367 200.767Z" fill="url(#paint12_linear)"/>
<path d="M90.3112 192.156V199.778C90.3112 200.892 89.4055 201.798 88.2907 201.798C87.6497 201.798 87.0366 201.492 86.6604 200.962L79.8047 191.584L90.3112 192.156Z" fill="#BBC3CC"/>
<path d="M210.313 86.4347C211.038 86.4347 211.637 85.8773 211.693 85.1527C211.748 84.3863 211.177 83.7314 210.411 83.6757L91.3416 75.1062C91.2302 75.1062 91.1187 75.1062 91.0072 75.1201L41.7075 83.5224C40.955 83.6478 40.4534 84.3585 40.5788 85.1249C40.7042 85.8773 41.4148 86.3789 42.1812 86.2535L91.3138 77.8791L210.216 86.4347C210.243 86.4347 210.271 86.4347 210.313 86.4347Z" fill="white"/>
<path d="M169.848 98.7105C169.988 98.7105 170.113 98.6966 170.252 98.6548L210.718 86.3647C211.442 86.1417 211.86 85.3753 211.637 84.6368C211.415 83.9122 210.634 83.4942 209.91 83.7172L169.709 95.9237L42.0704 83.4942C41.304 83.4106 40.6351 83.9819 40.5655 84.7344C40.4958 85.5008 41.0531 86.1696 41.8056 86.2393L169.723 98.6966C169.765 98.7105 169.807 98.7105 169.848 98.7105Z" fill="#BBC3CC"/>
<path d="M57.3436 142.171C57.4133 142.171 57.4829 142.171 57.5526 142.157L106.058 134.716L179.854 141.823C180.621 141.893 181.29 141.335 181.359 140.583C181.429 139.816 180.872 139.148 180.119 139.078L106.156 131.957C106.044 131.943 105.933 131.943 105.807 131.971L57.1346 139.44C56.3821 139.552 55.8666 140.262 55.978 141.015C56.0756 141.684 56.6748 142.171 57.3436 142.171Z" fill="#C2C2C2"/>
<path d="M145.297 150.546C145.827 150.546 146.314 150.24 146.551 149.752L171.104 97.93C171.424 97.2333 171.131 96.4111 170.449 96.0906C169.766 95.7701 168.93 96.0628 168.609 96.7455L144.461 147.69L57.4688 139.413C56.7024 139.343 56.0336 139.9 55.9639 140.653C55.8942 141.419 56.4516 142.088 57.204 142.158L145.158 150.518C145.213 150.532 145.255 150.546 145.297 150.546Z" fill="#BBC3CC"/>
<path d="M145.296 150.547C145.407 150.547 145.519 150.533 145.63 150.505L180.327 141.796C180.703 141.699 181.024 141.462 181.205 141.114L211.526 85.711C211.888 85.0422 211.651 84.2061 210.982 83.8299C210.314 83.4676 209.478 83.7045 209.101 84.3733L179.073 139.26L144.962 147.83C144.223 148.011 143.777 148.764 143.958 149.502C144.112 150.129 144.669 150.547 145.296 150.547Z" fill="#BBC3CC"/>
<path d="M160.917 117.564C161.042 117.564 161.181 117.55 161.307 117.508L199.417 106.333C200.156 106.124 200.574 105.343 200.351 104.619C200.142 103.88 199.362 103.462 198.637 103.685L160.777 114.777L48.2575 104.967C47.4771 104.897 46.8222 105.469 46.7665 106.221C46.6968 106.988 47.2681 107.657 48.0206 107.712L160.805 117.55C160.833 117.564 160.875 117.564 160.917 117.564Z" fill="#BBC3CC"/>
<path d="M151.607 137.212C151.733 137.212 151.858 137.198 151.983 137.156L188.492 126.928C189.23 126.719 189.662 125.953 189.453 125.228C189.244 124.49 188.478 124.058 187.753 124.267L151.496 134.425L53.7741 125.883C53.0216 125.8 52.3388 126.385 52.2831 127.137C52.2134 127.904 52.7847 128.573 53.5372 128.628L151.496 137.198C151.524 137.212 151.565 137.212 151.607 137.212Z" fill="#BBC3CC"/>
<path d="M127.335 148.832C127.934 148.832 128.478 148.442 128.659 147.843L144.321 95.3108C144.544 94.5722 144.126 93.8058 143.387 93.5968C142.663 93.3739 141.882 93.7919 141.673 94.5304L126.011 147.063C125.788 147.801 126.206 148.568 126.945 148.777C127.07 148.819 127.209 148.832 127.335 148.832Z" fill="#BBC3CC"/>
<path d="M110.016 147.188C110.671 147.188 111.257 146.714 111.382 146.045L120.774 92.8163C120.899 92.0638 120.397 91.3531 119.659 91.2138C118.906 91.0884 118.196 91.59 118.056 92.3285L108.665 145.558C108.539 146.31 109.041 147.021 109.779 147.16C109.849 147.174 109.933 147.188 110.016 147.188Z" fill="#BBC3CC"/>
<path d="M90.4815 144.959C91.2061 144.959 91.8192 144.388 91.861 143.649L94.815 90.7964C94.8568 90.03 94.2716 89.3751 93.5052 89.3333C92.7388 89.3054 92.0839 89.8767 92.0421 90.6431L89.088 143.496C89.0462 144.262 89.6315 144.917 90.3979 144.959C90.4257 144.959 90.4536 144.959 90.4815 144.959Z" fill="#BBC3CC"/>
<path d="M71.9601 142.897C71.988 142.897 72.0158 142.897 72.0298 142.897C72.7962 142.855 73.3814 142.2 73.3396 141.448L70.5248 87.7587C70.483 86.9923 69.842 86.4071 69.0756 86.4489C68.3092 86.4907 67.724 87.1456 67.7658 87.898L70.5806 141.587C70.6224 142.312 71.2355 142.897 71.9601 142.897Z" fill="#BBC3CC"/>
<path d="M155.79 147.913C156.306 147.913 156.793 147.62 157.03 147.132L182.335 94.5302C182.669 93.8474 182.377 93.0114 181.694 92.6909C181.011 92.3565 180.175 92.6491 179.855 93.3319L154.55 145.934C154.215 146.617 154.508 147.453 155.191 147.773C155.386 147.857 155.595 147.913 155.79 147.913Z" fill="#BBC3CC"/>
<path d="M169.851 144.373C170.353 144.373 170.854 144.094 171.091 143.607L197.957 89.7924C198.305 89.1096 198.027 88.2736 197.344 87.9391C196.661 87.5908 195.825 87.8695 195.491 88.5523L168.625 142.367C168.277 143.049 168.555 143.885 169.238 144.22C169.433 144.331 169.642 144.373 169.851 144.373Z" fill="#BBC3CC"/>
<path d="M139.457 199.178C139.638 199.178 139.806 199.15 139.973 199.081L190.025 179.21C190.736 178.932 191.084 178.123 190.805 177.413C190.527 176.702 189.718 176.354 189.008 176.632L139.276 196.363L78.8986 188.992C74.6068 188.463 71.0814 185.425 69.9248 181.259L36.8307 61.1028C35.3258 55.6126 30.4906 51.6553 24.8193 51.2512L7.26205 49.9832C6.50959 49.9414 5.84074 50.4987 5.785 51.2651C5.72927 52.0315 6.30058 52.6864 7.06697 52.7422L24.6243 54.0102C29.139 54.3307 32.9709 57.4798 34.1693 61.8413L67.2634 182.011C68.7125 187.264 73.1437 191.096 78.5641 191.751L139.29 199.164C139.346 199.178 139.402 199.178 139.457 199.178Z" fill="#BBC3CC"/>
<path d="M202.212 34.3762C200.84 29.6931 198.836 17.5867 204.598 17.1859C208.906 16.8862 209.134 26.5772 202.212 34.3762Z" fill="#A47EF6"/>
<path d="M209.57 37.5821C211.615 33.1516 218.064 22.7116 222.67 26.1978C226.113 28.8043 219.913 36.256 209.57 37.5821Z" fill="#A47EF6"/>
<path d="M212.82 44.7391C217.069 42.3385 228.402 37.634 230.103 43.1541C231.374 47.2814 221.989 49.7062 212.82 44.7391Z" fill="#A47EF6"/>
<defs>
<linearGradient id="paint0_linear" x1="194.424" y1="181.025" x2="191.506" y2="183.479" gradientUnits="userSpaceOnUse">
<stop stop-color="#AA80F9"/>
<stop offset="0.9964" stop-color="#6165D7"/>
</linearGradient>
<linearGradient id="paint1_linear" x1="192.531" y1="186.598" x2="181.985" y2="186.598" gradientUnits="userSpaceOnUse">
<stop stop-color="#AA80F9"/>
<stop offset="0.9964" stop-color="#6165D7"/>
</linearGradient>
<linearGradient id="paint2_linear" x1="189.469" y1="186.737" x2="185.05" y2="186.737" gradientUnits="userSpaceOnUse">
<stop stop-color="#40447E"/>
<stop offset="0.9964" stop-color="#3C3B6B"/>
</linearGradient>
<linearGradient id="paint3_linear" x1="137.963" y1="174.941" x2="135.046" y2="177.394" gradientUnits="userSpaceOnUse">
<stop stop-color="#AA80F9"/>
<stop offset="0.9964" stop-color="#6165D7"/>
</linearGradient>
<linearGradient id="paint4_linear" x1="136.071" y1="180.514" x2="125.524" y2="180.514" gradientUnits="userSpaceOnUse">
<stop stop-color="#AA80F9"/>
<stop offset="0.9964" stop-color="#6165D7"/>
</linearGradient>
<linearGradient id="paint5_linear" x1="133.008" y1="180.653" x2="128.589" y2="180.653" gradientUnits="userSpaceOnUse">
<stop stop-color="#40447E"/>
<stop offset="0.9964" stop-color="#3C3B6B"/>
</linearGradient>
<linearGradient id="paint6_linear" x1="55.4229" y1="49.4891" x2="4.39157" y2="49.4891" gradientUnits="userSpaceOnUse">
<stop stop-color="#40447E"/>
<stop offset="0.9964" stop-color="#3C3B6B"/>
</linearGradient>
<linearGradient id="paint7_linear" x1="144.893" y1="199.945" x2="141.976" y2="202.399" gradientUnits="userSpaceOnUse">
<stop stop-color="#AA80F9"/>
<stop offset="0.9964" stop-color="#6165D7"/>
</linearGradient>
<linearGradient id="paint8_linear" x1="143" y1="205.517" x2="132.454" y2="205.517" gradientUnits="userSpaceOnUse">
<stop stop-color="#AA80F9"/>
<stop offset="0.9964" stop-color="#6165D7"/>
</linearGradient>
<linearGradient id="paint9_linear" x1="139.938" y1="205.657" x2="135.519" y2="205.657" gradientUnits="userSpaceOnUse">
<stop stop-color="#40447E"/>
<stop offset="0.9964" stop-color="#3C3B6B"/>
</linearGradient>
<linearGradient id="paint10_linear" x1="96.0104" y1="195.053" x2="93.093" y2="197.506" gradientUnits="userSpaceOnUse">
<stop stop-color="#AA80F9"/>
<stop offset="0.9964" stop-color="#6165D7"/>
</linearGradient>
<linearGradient id="paint11_linear" x1="94.1188" y1="200.626" x2="83.5723" y2="200.626" gradientUnits="userSpaceOnUse">
<stop stop-color="#AA80F9"/>
<stop offset="0.9964" stop-color="#6165D7"/>
</linearGradient>
<linearGradient id="paint12_linear" x1="91.0566" y1="200.765" x2="86.6374" y2="200.765" gradientUnits="userSpaceOnUse">
<stop stop-color="#40447E"/>
<stop offset="0.9964" stop-color="#3C3B6B"/>
</linearGradient>
</defs>
</svg>
