<svg class="h-full w-full" viewBox="0 0 512 124.046"><path fill-rule="evenodd" clip-rule="evenodd" fill="#009DE2" d="M44.673 29.194h34.991c18.784 0 25.858 9.509 24.766 23.502-1.801 23.068-15.749 35.824-34.248 35.824h-9.34c-2.535 0-4.241 1.676-4.932 6.23l-4.007 26.446c-.26 1.717-1.163 2.726-2.521 2.849h-21.94c-2.064 0-2.799-1.58-2.258-5l13.398-84.833c.537-3.399 2.397-5.018 6.091-5.018z"/><path fill-rule="evenodd" clip-rule="evenodd" fill="#113984" d="M196.568 27.626c11.807 0 22.698 6.401 21.207 22.365-1.768 18.923-11.966 29.463-28.007 29.506h-13.993c-2.017 0-2.987 1.64-3.516 5.016l-2.701 17.224c-.407 2.6-1.74 3.884-3.715 3.884h-13.031c-2.079 0-2.803-1.328-2.34-4.297l10.772-69.038c.53-3.396 1.828-4.658 4.13-4.658h31.194v-.002zm-21.227 36.957l10.615.002c6.636-.25 11.049-4.847 11.492-13.139.274-5.122-3.184-8.785-8.689-8.76l-9.993.045-3.425 21.852zm77.858 35.745c1.189-1.08 2.405-1.646 2.229-.31l-.423 3.2c-.221 1.667.444 2.559 2 2.559h11.577c1.947 0 2.899-.79 3.379-3.804l7.134-44.778c.358-2.25-.186-3.354-1.896-3.354h-12.728c-1.148 0-1.704.645-2.005 2.398l-.472 2.756c-.246 1.439-.904 1.688-1.516.24-2.162-5.115-7.67-7.408-15.395-7.249-17.858.367-29.897 13.923-31.184 31.3-.996 13.442 8.638 23.998 21.331 23.998 9.21-.001 13.33-2.747 17.969-6.956zm-9.688-6.879c-7.687 0-13.044-6.13-11.926-13.647 1.119-7.517 8.3-13.647 15.986-13.647s13.044 6.13 11.926 13.647c-1.118 7.517-8.299 13.647-15.986 13.647zm58.254-39.751h-11.696c-2.424 0-3.409 1.773-2.638 4.029l14.575 42.685-14.362 20.301c-1.199 1.694-.274 3.245 1.417 3.245h13.197c1.97 0 2.931-.502 3.922-1.925l44.828-64.305c1.381-1.981.729-4.054-1.534-4.056l-12.477-.013c-2.142-.002-3.001.845-4.23 2.628l-18.698 27.127-8.319-27.174c-.514-1.677-1.736-2.542-3.985-2.542z"/><path fill-rule="evenodd" clip-rule="evenodd" fill="#009DE2" d="M397.66 27.626c11.808 0 22.698 6.401 21.208 22.365-1.768 18.923-11.967 29.463-28.008 29.506h-13.992c-2.019 0-2.987 1.64-3.517 5.016l-2.7 17.224c-.408 2.6-1.74 3.884-3.716 3.884h-13.032c-2.077 0-2.803-1.328-2.339-4.297l10.771-69.038c.53-3.396 1.828-4.658 4.13-4.658h31.195v-.002zm-21.227 36.957l10.615.002c6.636-.25 11.049-4.847 11.493-13.139.273-5.122-3.185-8.785-8.691-8.76l-9.992.045-3.425 21.852zm77.858 35.745c1.189-1.08 2.405-1.646 2.229-.31l-.423 3.2c-.221 1.667.444 2.559 2 2.559h11.576c1.947 0 2.9-.79 3.38-3.804l7.134-44.778c.358-2.25-.186-3.354-1.896-3.354h-12.727c-1.149 0-1.705.645-2.005 2.398l-.473 2.756c-.246 1.439-.904 1.688-1.517.24-2.161-5.115-7.669-7.408-15.395-7.249-17.857.367-29.896 13.923-31.185 31.3-.995 13.442 8.639 23.998 21.331 23.998 9.212-.001 13.333-2.747 17.971-6.956zm-9.687-6.879c-7.686 0-13.044-6.13-11.927-13.647 1.12-7.517 8.301-13.647 15.987-13.647s13.044 6.13 11.926 13.647-8.299 13.647-15.986 13.647zm53.401 12.407h-13.362c-1.062 0-1.799-.832-1.638-1.848l11.751-74.376c.16-1.017 1.16-1.849 2.222-1.849h13.362c1.062 0 1.799.832 1.639 1.849l-11.752 74.376c-.162 1.017-1.161 1.848-2.222 1.848z"/><path fill-rule="evenodd" clip-rule="evenodd" fill="#113984" d="M22.799 0h35.025c9.865 0 21.564.32 29.392 7.223 5.228 4.611 7.972 11.958 7.338 19.845-2.147 26.744-18.146 41.724-39.598 41.724H37.682c-2.94 0-4.889 1.948-5.719 7.225l-4.82 30.665c-.313 1.99-1.175 3.162-2.75 3.303H2.817c-2.394 0-3.245-1.831-2.619-5.798L15.735 5.819C16.357 1.877 18.514 0 22.799 0z"/><path fill-rule="evenodd" clip-rule="evenodd" fill="#172C70" d="M32.465 72.926l6.117-38.713c.537-3.4 2.396-5.018 6.091-5.018h34.991c5.792 0 10.472.904 14.14 2.571-3.516 23.802-18.911 37.027-39.072 37.027H37.458c-2.274-.001-3.972 1.162-4.993 4.133z"/></svg>