<svg width="400" height="338" viewBox="0 0 400 338" fill="none" xmlns="http://www.w3.org/2000/svg">
<g opacity="0.7">
<path d="M359.411 337.997H47.4912C45.6576 337.997 44.2314 336.571 44.2314 334.738C44.2314 332.904 45.6576 331.478 47.4912 331.478H359.411C361.244 331.478 362.67 332.904 362.67 334.738C362.467 336.571 361.04 337.997 359.411 337.997Z" fill="#4951EC"/>
<path d="M343.111 236.13C336.592 238.371 331.906 241.834 328.238 245.909C329.461 248.558 330.887 251.614 330.887 251.614L325.794 248.761C313.977 265.264 320.089 288.694 320.089 288.694C334.351 283.804 341.889 276.877 345.556 269.339C344.13 267.913 341.889 265.672 341.889 265.672L346.575 266.894C348.001 263.227 348.408 259.356 348.408 255.892C345.963 255.281 343.111 254.466 343.111 254.466L348.205 252.429C347.39 243.261 343.111 236.13 343.111 236.13Z" fill="#55769F"/>
<path opacity="0.5" d="M370.414 89.6438C379.989 94.941 369.191 106.35 366.135 109.202C367.765 112.87 369.191 116.537 370.21 119.797C372.247 114.907 370.618 109.61 372.655 107.165C375.1 104.313 379.582 103.09 380.193 110.629C380.601 116.537 373.47 120 370.618 121.223C372.247 126.927 372.655 131.817 372.859 135.484C375.915 130.187 374.692 124.075 377.545 121.427C380.601 118.574 385.694 117.759 385.286 126.113C384.879 132.836 375.915 135.892 372.859 136.707C372.859 139.967 372.655 142.004 372.655 142.208C372.044 146.282 371.432 149.95 370.618 153.617C373.47 149.135 373.47 143.634 376.322 141.596C379.786 139.152 385.083 139.152 383.453 147.301C382.23 153.617 373.674 155.45 370.21 156.062C368.173 163.6 365.524 170.119 362.672 175.824C366.747 172.768 370.21 165.637 374.692 164.211C377.748 163.396 379.582 164.619 380.397 166.045C381.212 167.267 381.416 168.693 381.008 170.119C378.971 177.861 365.932 177.25 361.857 176.843C358.19 183.973 354.115 189.678 350.448 194.16C352.485 192.734 355.745 190.289 357.171 189.067C359.616 187.03 364.098 185.603 366.95 186.826C367.154 186.826 367.154 186.826 367.358 187.03C369.395 188.048 370.414 190.493 369.803 192.734C367.358 201.495 352.281 197.013 349.022 195.994C339.446 207.199 330.685 212.089 330.278 212.293L329.463 210.867C329.463 210.867 337.816 206.181 346.984 195.79C340.465 182.751 345.151 174.805 348.818 174.805C352.689 174.805 356.56 178.88 353.096 184.177C351.059 187.233 349.429 191.104 348.614 193.753C352.485 189.271 356.56 183.362 360.227 176.232C346.169 162.785 355.337 154.839 359.82 156.673C364.302 158.507 364.505 161.97 362.468 167.063C361.042 170.323 360.838 173.583 360.838 175.417C363.691 169.712 366.339 163.396 368.173 156.062C364.709 155.45 356.152 153.617 354.93 147.097C353.504 138.948 358.597 138.948 362.061 141.596C365.117 143.838 364.709 150.153 368.376 155.043C369.395 150.968 370.21 146.69 370.821 142.004C370.821 142.004 371.432 137.929 370.618 131.613C367.154 131.613 358.393 130.595 356.356 124.483C353.911 116.537 359.005 115.926 362.672 117.963C365.932 119.797 366.339 125.909 370.414 130.187C369.599 124.89 367.969 117.963 364.505 110.221C360.838 110.017 352.485 109.202 350.448 103.09C348.003 95.1447 353.096 94.5335 356.763 96.5708C360.023 98.4045 360.431 104.517 364.505 108.999H364.709C364.302 106.758 363.487 102.072 363.079 99.8306C362.468 96.9783 363.079 92.6999 365.32 90.6625C367.969 88.6252 370.414 89.6438 370.414 89.6438Z" fill="#DDE8FE"/>
<path d="M276.696 52.1566C290.958 51.3416 286.883 71.3077 285.457 76.6048C289.939 79.4571 293.81 82.5132 297.07 85.5692C295.848 78.8459 290.347 74.3638 290.958 69.8816C291.569 64.9919 295.848 60.5097 301.348 68.4554C305.831 74.5675 300.533 83.3281 298.089 86.7916C303.793 92.0888 307.868 96.9784 310.517 100.849C310.313 92.9037 304.608 86.9954 305.831 82.3095C307.257 77.0123 312.35 72.7339 317.647 82.1057C321.926 89.8477 314.184 99.2195 311.331 102.276C313.776 105.739 314.795 108.184 314.795 108.388C317.036 113.074 318.87 117.759 320.296 122.242C320.296 115.315 316.425 109.406 318.258 105.128C320.296 100.034 326 96.5709 329.871 106.554C332.927 114.5 324.778 122.242 321.315 125.298C324.371 134.873 326 143.838 326.815 152.191C329.056 146.282 328.038 135.892 332.113 131.206C334.761 128.15 337.817 128.354 339.651 129.169C341.281 129.78 342.707 131.206 343.114 133.04C346.17 143.023 331.501 151.376 326.815 153.617C327.63 163.804 327.223 172.972 326.408 180.51C327.63 177.454 329.464 172.768 330.279 170.323C331.705 166.452 335.372 161.97 339.243 161.155C339.447 161.155 339.651 161.155 339.651 161.155C342.707 160.748 345.355 162.785 346.17 165.637C349.634 176.843 330.075 182.547 325.797 183.566V183.77C322.944 202.514 316.832 213.923 316.425 214.534L314.591 213.515C314.591 213.312 320.5 202.514 323.352 184.992C307.257 175.213 306.849 163.396 310.924 160.748C314.999 158.099 322.333 159.729 322.129 168.286C321.926 173.176 322.944 178.269 323.963 181.936C324.982 174.398 325.593 165.026 324.574 154.636C299.922 149.542 304.404 134.67 310.517 133.447C316.629 132.225 319.481 135.892 320.5 143.023C321.315 147.709 323.148 151.376 324.371 153.413C323.556 145.264 321.926 136.299 319.073 126.928C314.999 128.761 304.201 132.632 298.292 126.316C291.162 118.371 296.866 114.907 302.367 115.315C307.46 115.722 311.128 123.057 318.666 125.705C317.036 120.612 314.999 115.111 312.35 109.814C312.35 109.814 310.109 104.924 305.016 98.6083C301.145 100.849 290.958 106.147 284.438 100.646C276.289 93.7187 281.586 89.4402 287.087 89.2365C291.977 89.0327 296.459 95.3485 303.793 97.1822C299.311 91.885 292.792 85.3655 283.623 79.4572C279.549 81.902 269.566 86.5879 263.25 81.2908C255.1 74.3638 260.398 70.0853 265.898 69.8816C270.788 69.6778 275.474 76.1974 283.012 78.031L283.216 77.8273C281.179 75.5862 277.104 71.104 275.067 69.0666C272.214 66.2143 270.177 61.1209 271.196 57.4537C273.437 52.7678 276.696 52.1566 276.696 52.1566Z" fill="#BED1F9"/>
<path d="M334.756 178.473C334.552 182.751 336.59 187.641 340.664 191.919C344.332 195.994 349.221 199.05 354.518 200.884C354.926 201.087 355.537 201.087 355.945 201.291L357.574 201.699L358.389 201.902C358.797 202.106 359.204 202.31 359.816 202.31C365.113 204.143 370.817 204.551 376.318 203.532C382.023 202.514 386.709 199.865 389.154 196.401C392.21 191.919 391.395 186.622 386.912 181.936C384.468 179.288 381.412 178.065 378.152 178.473C373.67 178.88 368.576 182.547 363.279 189.067C361.853 190.697 360.631 192.327 359.816 193.753C359.816 192.123 360.019 190.086 359.816 187.845C359.612 179.491 357.778 173.583 354.315 170.527C351.87 168.286 348.814 167.471 345.35 168.082C338.831 169.508 334.96 173.176 334.756 178.473ZM363.279 198.235C364.298 196.605 365.724 194.568 367.354 192.53C371.632 187.437 375.503 184.381 378.559 183.974C378.967 183.974 379.578 183.974 380.393 184.177C381.004 184.381 381.819 184.789 382.634 185.807C385.283 188.66 385.894 191.308 384.264 193.753C381.412 198.031 372.243 200.476 363.279 198.235ZM346.165 173.583C347.388 173.379 348.203 173.379 349.018 173.787C349.629 173.991 350.24 174.398 350.647 174.805C352.889 176.843 354.111 181.732 354.315 188.252C354.315 190.901 354.315 193.345 354.111 195.179C345.554 191.512 339.849 183.974 340.053 178.88C340.257 176.028 342.294 174.194 346.165 173.583Z" fill="#FFAA45"/>
<path d="M299.718 259.356L365.321 281.359C368.785 282.582 372.656 280.748 373.878 277.081L393.437 219.22C394.659 215.756 392.826 211.885 389.158 210.663L323.556 188.66C320.092 187.437 316.221 189.271 314.999 192.938L295.44 250.799C294.218 254.263 296.255 258.134 299.718 259.356Z" fill="#BED1F9"/>
<path d="M305.218 221.868L383.452 248.15L392.62 221.054C394.25 216.571 391.805 211.682 387.12 210.052L325.388 189.474C320.905 188.048 316.016 190.289 314.386 194.975L305.218 221.868Z" fill="#92B5F9"/>
<path d="M306.846 212.496L387.933 239.797C390.174 240.612 392.822 239.39 393.637 236.945L399.749 219.016C400.564 216.775 399.342 214.126 396.897 213.311L315.81 186.215C313.569 185.4 310.921 186.622 310.106 189.067L303.994 206.996C303.179 209.237 304.401 211.682 306.846 212.496Z" fill="#BED1F9"/>
<path d="M323.191 267.352L340.954 273.335L364.756 202.668L346.993 196.685L323.191 267.352Z" fill="#FFAA45"/>
<path d="M334.971 231.981L352.734 237.964L355.726 229.082L337.962 223.099L334.971 231.981Z" fill="#FFAA45"/>
<path d="M62.8451 257.901L142.604 228.625L107.149 132.035L27.3904 161.311L62.8451 257.901Z" fill="#BED1F9"/>
<path d="M102.806 243.259L142.59 228.656L107.135 132.066L67.3516 146.669L102.806 243.259Z" fill="#92B5F9"/>
<path d="M95.3689 145.671C96.1839 145.264 96.5914 144.245 96.1839 143.43C94.7577 140.578 91.498 134.669 86.6083 129.169C77.6439 119.185 67.4571 115.518 57.2704 118.778C51.5658 120.612 47.2873 124.075 44.6387 129.169C38.7304 140.781 42.3976 157.284 43.8238 162.581C44.0275 163.396 45.0462 164.007 45.8612 163.804C46.6761 163.6 47.0836 162.581 46.8798 161.766C45.6574 156.877 41.9902 141.189 47.491 130.595C49.7321 126.316 53.3994 123.26 58.0853 121.834C67.0497 118.982 75.8103 122.038 83.9597 131.206C88.6457 136.503 91.7017 142.208 93.1278 144.856C93.5353 145.671 94.554 146.079 95.3689 145.671Z" fill="#DDE8FE"/>
<path d="M352.892 230.425C344.335 231.851 337.611 234.907 332.111 239.186C333.129 242.649 334.148 246.928 334.148 246.928L328.443 242.242C310.107 260.171 312.144 290.527 312.144 290.527C331.092 287.675 342.094 280.748 348.206 272.395C346.78 270.154 344.539 266.894 344.539 266.894L350.039 269.543C352.688 265.264 354.114 260.578 354.929 256.3C352.077 254.874 348.817 253.244 348.817 253.244L355.54 251.818C356.559 240.205 352.892 230.425 352.892 230.425Z" fill="#4951EC"/>
<path d="M398.527 247.743C384.469 245.705 372.449 247.335 362.058 251.206C361.855 257.318 361.651 264.449 361.651 264.449L355.335 254.262C318.051 273.21 306.438 321.699 306.438 321.699C337.203 326.589 357.78 320.884 371.43 310.901C370.208 306.826 368.17 300.714 368.17 300.714L375.709 307.437C381.821 301.937 386.303 295.621 389.766 289.101C385.895 285.638 381.617 281.563 381.617 281.563L392.619 282.785C399.546 264.653 398.527 247.743 398.527 247.743Z" fill="#7C9AF2"/>
<path d="M371.228 310.901C370.006 306.826 367.968 300.714 367.968 300.714L375.506 307.438C381.619 301.937 386.101 295.621 389.564 289.101C385.693 285.638 381.415 281.563 381.415 281.563L392.417 282.786C399.344 264.857 398.529 247.947 398.529 247.947C352.892 266.079 306.236 321.903 306.236 321.903C337 326.589 357.578 320.884 371.228 310.901Z" fill="#4951EC"/>
<path d="M387.731 312.735C381.211 305.808 374.284 301.733 367.357 299.492C364.709 302.548 361.653 306.215 361.653 306.215L362.468 298.27C335.371 292.565 309.089 312.939 309.089 312.939C323.147 328.219 335.982 333.72 347.391 334.331C348.41 331.682 350.04 327.608 350.04 327.608L351.058 334.127C356.559 333.923 361.449 332.497 365.931 330.46C365.32 326.996 364.912 323.125 364.912 323.125L370.21 328.422C381.211 321.903 387.731 312.735 387.731 312.735Z" fill="#FFAA45"/>
<path d="M347.595 334.127C348.613 331.478 350.243 327.404 350.243 327.404L351.262 333.923C356.763 333.719 361.652 332.293 366.135 330.256C365.523 326.792 365.116 322.921 365.116 322.921L370.413 328.219C381.415 321.903 387.934 312.735 387.934 312.735C356.763 303.159 309.496 312.735 309.496 312.735C323.146 328.015 336.186 333.516 347.595 334.127Z" fill="#EF9D43"/>
<path d="M109.631 249.78L64.1977 187.03C62.5678 184.788 59.308 184.177 56.8632 185.807L21.6169 211.478C19.3758 213.108 18.7646 216.367 20.3945 218.812L65.8275 281.359C67.4574 283.6 70.7172 284.211 73.162 282.582L108.408 256.911C110.853 255.281 111.261 252.021 109.631 249.78Z" fill="#FFAA45"/>
<path d="M89.7681 270.642L38.127 199.621L26.9218 207.769L78.5629 278.79L89.7681 270.642Z" fill="#0B0754"/>
<path d="M70.1053 218.609L52.3803 194.364C52.1766 193.957 51.7691 193.957 51.3616 194.16L51.1579 194.364C50.7504 194.568 50.7504 194.975 50.9541 195.383L68.6791 219.627C68.8829 220.035 69.2904 220.035 69.6978 219.831L69.9016 219.627C70.1053 219.424 70.309 219.016 70.1053 218.609Z" fill="#0B0754"/>
<path d="M70.1049 212.089L55.436 192.123C55.2322 191.716 54.8247 191.716 54.4173 191.919L54.2135 192.123C53.8061 192.327 53.8061 192.734 54.0098 193.142L68.6788 213.108C68.8825 213.515 69.29 213.515 69.6975 213.312L69.9012 213.108C70.3087 212.904 70.3087 212.497 70.1049 212.089Z" fill="#0B0754"/>
<path d="M76.4217 214.126L58.6967 189.882C58.493 189.474 58.0855 189.474 57.678 189.678L57.4743 189.882C57.0668 190.085 57.0668 190.493 57.2705 190.9L74.9956 215.145C75.1993 215.552 75.6068 215.552 76.0142 215.349L76.218 215.145C76.6254 214.738 76.6254 214.33 76.4217 214.126Z" fill="#0B0754"/>
<path d="M100.871 247.743L95.3702 240.001C94.3515 238.575 92.5179 238.371 91.0918 239.39L88.4432 241.427C87.017 242.446 86.8133 244.279 87.832 245.705L93.3329 253.447C94.3515 254.874 96.1852 255.077 97.6113 254.059L100.26 252.021C101.686 251.003 101.89 249.169 100.871 247.743Z" fill="#0B0754"/>
<path d="M0.0208625 227.165C16.5235 224.721 30.5812 226.35 42.8054 230.833C43.0091 237.963 43.6203 246.317 43.6203 246.317L50.9548 234.296C94.758 255.892 109.019 312.531 109.019 312.531C72.9583 318.643 48.9174 312.327 32.8223 300.714C34.2485 295.824 36.4896 288.694 36.4896 288.694L27.9327 296.843C20.5982 290.527 15.301 282.989 11.2263 275.451C15.7085 271.376 20.8019 266.486 20.8019 266.486L7.76282 267.913C-0.79408 246.928 0.0208625 227.165 0.0208625 227.165Z" fill="#7C9AF2"/>
<path d="M32.8223 300.51C34.2485 295.621 36.4896 288.49 36.4896 288.49L27.9327 296.639C20.5982 290.324 15.301 282.785 11.2263 275.247C15.7085 271.172 20.8019 266.283 20.8019 266.283L7.76282 267.709C-0.79408 246.928 0.0208625 227.166 0.0208625 227.166C53.6034 247.743 109.019 312.327 109.019 312.327C72.9583 318.439 48.9174 312.123 32.8223 300.51Z" fill="#4951EC"/>
<path d="M11.8379 302.752C20.5985 296.028 29.1554 292.361 37.7123 290.935C40.1572 295.01 43.2132 299.696 43.2132 299.696L43.6207 290.324C76.0146 288.49 102.704 316.606 102.704 316.606C83.9604 331.886 67.8652 335.961 54.8261 334.738C54.0112 331.478 52.9925 326.589 52.9925 326.589L50.5477 334.127C44.2319 332.905 38.731 330.256 34.0451 327.2C35.2675 323.329 36.6937 318.847 36.6937 318.847L29.7666 323.94C17.7462 314.568 11.8379 302.752 11.8379 302.752Z" fill="#BED1F9"/>
<path d="M54.6224 334.534C53.8075 331.274 52.7888 326.385 52.7888 326.385L50.344 333.923C44.0281 332.701 38.5273 330.052 33.8414 326.996C35.0638 323.125 36.4899 318.643 36.4899 318.643L29.5629 323.736C17.95 314.568 11.8379 302.751 11.8379 302.751C49.529 297.251 102.704 316.402 102.704 316.402C83.7566 331.682 67.6615 335.96 54.6224 334.534Z" fill="#92B5F9"/>
<path d="M111.056 24.8557C111.056 24.8557 111.464 28.1155 113.909 28.3192C111.464 28.523 111.056 31.7827 111.056 31.7827C111.056 31.7827 110.649 28.523 108.204 28.3192C110.649 27.9117 111.056 24.8557 111.056 24.8557Z" fill="#DDE8FE"/>
<path d="M165.456 128.15C165.456 128.15 166.067 133.447 170.346 133.854C166.067 134.262 165.456 139.559 165.456 139.559C165.456 139.559 164.845 134.262 160.566 133.854C164.845 133.651 165.456 128.15 165.456 128.15Z" fill="#DDE8FE"/>
<path d="M303.384 26.4856C303.384 26.4856 303.588 29.1342 305.829 29.3379C303.588 29.5416 303.384 32.1902 303.384 32.1902C303.384 32.1902 303.181 29.5416 300.939 29.3379C302.977 29.1342 303.384 26.4856 303.384 26.4856Z" fill="#DDE8FE"/>
<path d="M19.7842 67.0291C19.7842 67.0291 20.3954 72.5299 24.6738 72.7337C20.3954 73.1411 19.7842 78.4383 19.7842 78.4383C19.7842 78.4383 19.173 72.9374 14.8945 72.7337C19.3767 72.3262 19.7842 67.0291 19.7842 67.0291Z" fill="#7C9AF2"/>
<path d="M82.3303 86.7913C82.3303 86.7913 82.9415 92.6996 87.6275 93.1071C82.9415 93.5145 82.3303 99.4229 82.3303 99.4229C82.3303 99.4229 81.7191 93.5145 77.0332 93.1071C81.7191 92.6996 82.3303 86.7913 82.3303 86.7913Z" fill="#BED1F9"/>
<path d="M215.165 25.2632C215.165 25.2632 215.776 31.1715 220.462 31.579C215.776 31.9865 215.165 37.8948 215.165 37.8948C215.165 37.8948 214.554 31.9865 209.868 31.579C214.554 31.1715 215.165 25.2632 215.165 25.2632Z" fill="#BED1F9"/>
<path d="M153.84 0C153.84 0 154.452 5.90834 159.138 6.31581C154.452 6.72328 153.84 12.6316 153.84 12.6316C153.84 12.6316 153.433 6.72328 148.747 6.31581C153.433 5.90834 153.84 0 153.84 0Z" fill="#7C9AF2"/>
<path d="M55.4368 7.33447C55.4368 7.33447 56.048 13.2428 60.7339 13.6503C56.048 14.0578 55.4368 19.9661 55.4368 19.9661C55.4368 19.9661 54.8256 14.0578 50.1396 13.6503C54.8256 13.2428 55.4368 7.33447 55.4368 7.33447Z" fill="#FFAA45"/>
<path d="M332.723 57.0461C332.723 57.0461 333.334 62.9545 338.02 63.362C333.334 63.7694 332.723 69.6778 332.723 69.6778C332.723 69.6778 332.112 63.7694 327.426 63.362C332.112 62.9545 332.723 57.0461 332.723 57.0461Z" fill="#FFAA45"/>
<path d="M220.667 88.625C220.667 88.625 221.075 91.8848 223.723 92.2922C221.075 92.496 220.667 95.9595 220.667 95.9595C220.667 95.9595 220.26 92.6997 217.611 92.2922C220.26 91.8848 220.667 88.625 220.667 88.625Z" fill="#FFAA45"/>
<path d="M251.838 332.089H164.027C122.669 332.089 89.0527 298.473 89.0527 257.114V233.277C89.0527 191.919 122.669 158.302 164.027 158.302H251.838C293.196 158.302 326.812 191.919 326.812 233.277V257.114C326.812 298.473 293.4 332.089 251.838 332.089Z" fill="#0B0754"/>
<path d="M309.902 325.366H119.001C105.758 325.366 95.1641 314.568 95.1641 301.529V189.067C95.1641 175.824 105.962 165.026 119.001 165.026H309.902V325.366Z" fill="#DDE8FE"/>
<path d="M299.92 186.214H103.926V322.514H299.92V186.214Z" fill="white"/>
<path d="M299.92 190.085V179.898C299.92 176.435 297.067 173.583 293.604 173.583H110.242C106.778 173.583 103.926 176.435 103.926 179.898V190.085H299.92Z" fill="#FFAA45"/>
<path d="M287.49 185.807H211.089C208.848 185.807 207.218 183.973 207.218 181.936C207.218 179.695 209.051 178.065 211.089 178.065H287.49C289.731 178.065 291.361 179.899 291.361 181.936C291.361 183.973 289.731 185.807 287.49 185.807Z" fill="white"/>
<path d="M120.019 181.529C120.222 183.77 118.389 185.603 116.148 185.4C114.518 185.196 113.295 183.973 113.092 182.344C112.888 180.102 114.722 178.269 116.963 178.473C118.593 178.676 119.815 179.899 120.019 181.529Z" fill="white"/>
<path d="M135.098 181.529C135.302 183.77 133.468 185.603 131.227 185.4C129.597 185.196 128.374 183.973 128.171 182.344C127.967 180.102 129.801 178.269 132.042 178.473C133.672 178.676 134.894 179.899 135.098 181.529Z" fill="white"/>
<path d="M150.175 181.529C150.379 183.77 148.545 185.603 146.304 185.4C144.674 185.196 143.452 183.973 143.248 182.344C143.044 180.102 144.878 178.269 147.119 178.473C148.749 178.676 149.971 179.899 150.175 181.529Z" fill="white"/>
<path d="M137.745 290.527C124.095 290.527 112.89 279.525 112.89 265.671V226.961C112.89 213.311 123.891 202.106 137.745 202.106C151.396 202.106 162.601 213.107 162.601 226.961V265.671C162.601 279.525 151.396 290.527 137.745 290.527Z" fill="#DDE8FE"/>
<path d="M201.922 290.527C188.272 290.527 177.066 279.525 177.066 265.671V226.961C177.066 213.311 188.068 202.106 201.922 202.106C215.572 202.106 226.778 213.107 226.778 226.961V265.671C226.778 279.525 215.572 290.527 201.922 290.527Z" fill="#DDE8FE"/>
<path d="M159.953 236.945C155.471 223.906 144.265 218.812 144.265 218.812C143.654 223.498 139.783 224.109 137.949 224.109C137.949 224.109 137.746 224.109 137.542 224.109C137.338 224.109 137.134 224.109 137.134 224.109C135.301 224.109 131.43 223.498 130.819 218.812C130.819 218.812 119.613 223.906 115.131 236.945C115.131 236.945 117.372 239.593 122.058 239.593L121.447 269.339C121.447 269.339 124.095 271.376 135.708 271.172C136.931 271.172 138.153 271.172 139.375 271.172C150.988 271.376 153.637 269.339 153.637 269.339L153.026 239.593C157.712 239.593 159.953 236.945 159.953 236.945Z" fill="#4951EC"/>
<path d="M115.538 248.354H111.871C110.037 248.354 108.611 246.927 108.611 245.094C108.611 243.26 110.037 241.834 111.871 241.834H115.538C117.372 241.834 118.798 243.26 118.798 245.094C118.798 246.927 117.372 248.354 115.538 248.354Z" fill="#FFAA45"/>
<path d="M116.963 244.89H111.666L113.296 243.26L112.889 242.853L110.647 245.094L112.889 247.131L113.296 246.724L111.666 245.298H116.963V244.89Z" fill="white"/>
<path d="M224.537 319.05H180.53C177.678 319.05 175.437 316.809 175.437 313.957C175.437 311.104 177.678 308.863 180.53 308.863H224.741C227.593 308.863 229.834 311.104 229.834 313.957C229.834 316.809 227.389 319.05 224.537 319.05Z" fill="#FFAA45"/>
<path d="M159.953 236.945C155.471 223.906 144.266 218.812 144.266 218.812C143.654 223.498 139.783 224.109 137.95 224.109C137.95 224.109 137.95 224.109 137.746 224.109V270.969C138.357 270.969 138.765 270.969 139.376 270.969C150.989 271.172 153.637 269.135 153.637 269.135L153.026 239.39C157.712 239.593 159.953 236.945 159.953 236.945Z" fill="#4951EC"/>
<path d="M224.333 236.945C219.85 223.906 208.645 218.812 208.645 218.812C208.034 223.498 204.163 224.109 202.329 224.109C202.329 224.109 202.125 224.109 201.922 224.109C201.718 224.109 201.514 224.109 201.514 224.109C199.681 224.109 195.81 223.498 195.198 218.812C195.198 218.812 183.993 223.906 179.511 236.945C179.511 236.945 181.752 239.593 186.438 239.593L185.827 269.339C185.827 269.339 188.475 271.376 200.088 271.172C201.31 271.172 202.533 271.172 203.755 271.172C215.368 271.376 218.017 269.339 218.017 269.339L217.406 239.593C222.092 239.593 224.333 236.945 224.333 236.945Z" fill="#FFAA45"/>
<path d="M224.331 236.945C219.849 223.906 208.644 218.812 208.644 218.812C208.032 223.498 204.161 224.109 202.328 224.109C202.328 224.109 202.328 224.109 202.124 224.109V270.969C202.735 270.969 203.143 270.969 203.754 270.969C215.367 271.172 218.015 269.135 218.015 269.135L217.404 239.39C222.09 239.593 224.331 236.945 224.331 236.945Z" fill="#FFAA45"/>
<path d="M156.897 295.009H115.131V296.843H156.897V295.009Z" fill="#DDE8FE"/>
<path d="M156.897 299.288H115.131V301.121H156.897V299.288Z" fill="#DDE8FE"/>
<path d="M156.897 303.77H115.131V305.603H156.897V303.77Z" fill="#DDE8FE"/>
<path d="M223.516 295.009H181.75V296.843H223.516V295.009Z" fill="#DDE8FE"/>
<path d="M223.516 299.288H181.75V301.121H223.516V299.288Z" fill="#DDE8FE"/>
<path d="M265.897 290.527C252.246 290.527 241.041 279.525 241.041 265.671V226.961C241.041 213.311 252.043 202.106 265.897 202.106C279.547 202.106 290.753 213.107 290.753 226.961V265.671C290.753 279.525 279.751 290.527 265.897 290.527Z" fill="#DDE8FE"/>
<path d="M288.306 236.945C283.824 223.906 272.619 218.812 272.619 218.812C272.007 223.498 268.136 224.109 266.303 224.109C266.303 224.109 266.099 224.109 265.895 224.109C265.692 224.109 265.488 224.109 265.488 224.109C263.654 224.109 259.783 223.498 259.172 218.812C259.172 218.812 247.967 223.906 243.484 236.945C243.484 236.945 245.725 239.593 250.411 239.593L249.8 269.339C249.8 269.339 252.449 271.376 264.062 271.172C265.284 271.172 266.507 271.172 267.729 271.172C279.342 271.376 281.99 269.339 281.99 269.339L281.379 239.593C286.065 239.593 288.306 236.945 288.306 236.945Z" fill="#92B5F9"/>
<path d="M288.306 236.945C283.824 223.906 272.618 218.812 272.618 218.812C272.007 223.498 268.136 224.109 266.302 224.109C266.302 224.109 266.302 224.109 266.099 224.109V270.969C266.71 270.969 267.117 270.969 267.728 270.969C279.341 271.172 281.99 269.135 281.99 269.135L281.379 239.39C286.065 239.593 288.306 236.945 288.306 236.945Z" fill="#92B5F9"/>
<path d="M287.693 295.009H245.927V296.843H287.693V295.009Z" fill="#DDE8FE"/>
<path d="M287.693 299.288H245.927V301.121H287.693V299.288Z" fill="#DDE8FE"/>
<path d="M168.51 206.792C168.713 212.496 164.231 216.978 158.527 216.775C153.637 216.571 149.766 212.7 149.562 207.81C149.359 202.106 153.841 197.624 159.545 197.827C164.435 198.235 168.306 202.106 168.51 206.792Z" fill="#FFAA45"/>
<path d="M158.323 205.162C158.323 205.569 158.323 205.773 158.119 206.18C158.119 206.384 157.915 206.792 157.712 206.995C157.508 207.199 157.304 207.403 157.1 207.403C156.897 207.607 156.489 207.607 156.285 207.607C155.878 207.607 155.674 207.607 155.47 207.403C155.267 207.199 155.063 207.199 154.859 206.995C154.656 206.792 154.656 206.588 154.452 206.18C154.452 205.977 154.248 205.569 154.248 205.162C154.248 204.754 154.248 204.551 154.452 204.143C154.452 203.939 154.656 203.532 154.859 203.328C155.063 203.124 155.267 202.921 155.47 202.717C155.674 202.513 156.082 202.513 156.285 202.513C156.693 202.513 156.897 202.513 157.304 202.717C157.508 202.921 157.712 202.921 157.915 203.328C158.119 203.532 158.119 203.736 158.323 204.143C158.323 204.551 158.323 204.958 158.323 205.162ZM156.285 212.292C156.285 212.292 156.285 212.496 156.285 212.292C156.082 212.496 156.082 212.496 156.082 212.496H155.878H155.674C155.47 212.496 155.47 212.496 155.47 212.496H155.267C155.267 212.496 155.267 212.496 155.267 212.292C155.267 212.292 155.267 212.292 155.267 212.089L161.786 202.717C161.786 202.717 161.786 202.717 161.99 202.717H162.194H162.397H162.601H162.805C162.805 202.717 162.805 202.717 162.805 202.921C162.805 202.921 162.805 202.921 162.805 203.124L156.285 212.292ZM157.304 205.365C157.304 205.162 157.304 204.958 157.304 204.551C157.304 204.347 157.304 204.143 157.1 203.939C157.1 203.736 156.897 203.736 156.693 203.532C156.489 203.532 156.489 203.328 156.285 203.328C156.082 203.328 155.878 203.328 155.878 203.328C155.674 203.328 155.674 203.532 155.47 203.532C155.47 203.736 155.267 203.736 155.267 203.939C155.267 204.143 155.267 204.347 155.267 204.551C155.267 204.958 155.267 205.162 155.267 205.365C155.267 205.569 155.47 205.773 155.47 205.977C155.47 206.18 155.674 206.18 155.878 206.18C156.082 206.18 156.082 206.18 156.285 206.18C156.489 206.18 156.693 206.18 156.693 205.977C156.897 205.977 156.897 205.773 156.897 205.569C156.897 205.365 157.1 205.162 157.1 204.958C157.304 205.773 157.304 205.569 157.304 205.365ZM163.824 209.848C163.824 210.255 163.824 210.459 163.62 210.866C163.62 211.07 163.416 211.478 163.212 211.681C163.009 211.885 162.805 212.089 162.601 212.089C162.397 212.292 161.99 212.292 161.786 212.292C161.379 212.292 161.175 212.292 160.971 212.089C160.768 211.885 160.564 211.885 160.36 211.681C160.156 211.478 160.156 211.274 159.953 210.866C159.953 210.663 159.749 210.255 159.749 209.848C159.749 209.44 159.749 209.236 159.953 208.829C159.953 208.625 160.156 208.218 160.36 208.014C160.564 207.81 160.768 207.607 160.971 207.403C161.175 207.199 161.583 207.199 161.786 207.199C162.194 207.199 162.397 207.199 162.805 207.403C163.009 207.607 163.212 207.607 163.416 208.014C163.62 208.218 163.62 208.422 163.824 208.829C163.824 209.236 163.824 209.644 163.824 209.848ZM162.805 209.848C162.805 209.644 162.805 209.44 162.805 209.033C162.805 208.829 162.805 208.625 162.601 208.422C162.601 208.218 162.397 208.218 162.194 208.014C161.99 208.014 161.99 207.81 161.786 207.81C161.583 207.81 161.379 207.81 161.379 207.81C161.175 207.81 161.175 208.014 160.971 208.014C160.971 208.218 160.768 208.218 160.768 208.422C160.768 208.625 160.768 208.829 160.768 209.033C160.768 209.44 160.768 209.644 160.768 209.848C160.768 210.051 160.971 210.255 160.971 210.459C160.971 210.663 161.175 210.663 161.379 210.663C161.583 210.663 161.583 210.663 161.786 210.663C161.99 210.663 162.194 210.663 162.194 210.459C162.397 210.459 162.397 210.255 162.397 210.051C162.397 209.848 162.601 209.644 162.601 209.44C162.805 210.459 162.805 210.255 162.805 209.848Z" fill="white"/>
<path d="M188.879 311.919V312.734H187.861V315.79H186.842V312.734H185.823V311.919H188.879Z" fill="white"/>
<path d="M190.712 312.734C190.916 312.734 191.12 312.531 191.323 312.531V313.549H191.12C190.916 313.549 190.712 313.549 190.509 313.753C190.305 313.957 190.305 313.957 190.305 314.364V315.79H189.286V312.734H190.305V313.345C190.305 312.938 190.509 312.938 190.712 312.734Z" fill="white"/>
<path d="M191.733 313.345C191.937 313.142 191.937 312.938 192.141 312.734C192.344 312.531 192.548 312.531 192.752 312.531C192.955 312.531 193.159 312.531 193.363 312.734C193.567 312.734 193.567 312.938 193.77 313.142V312.734H194.789V315.79H193.77V315.383C193.77 315.587 193.567 315.587 193.363 315.79C193.159 315.79 192.955 315.994 192.752 315.994C192.548 315.994 192.344 315.994 192.141 315.79C191.937 315.587 191.733 315.383 191.733 315.179C191.529 314.975 191.529 314.568 191.529 314.364C191.529 314.16 191.529 313.549 191.733 313.345ZM193.567 313.549C193.363 313.345 193.363 313.345 193.159 313.345C192.955 313.345 192.752 313.345 192.752 313.549C192.752 313.753 192.548 313.957 192.548 314.16C192.548 314.364 192.548 314.568 192.752 314.772C192.955 314.975 192.955 314.975 193.159 314.975C193.363 314.975 193.567 314.975 193.567 314.772C193.77 314.568 193.77 314.364 193.77 314.16C193.77 313.957 193.77 313.753 193.567 313.549Z" fill="white"/>
<path d="M195.398 313.345C195.602 313.142 195.806 312.938 196.009 312.734C196.213 312.531 196.417 312.531 196.824 312.531C197.232 312.531 197.639 312.734 197.843 312.938C198.047 313.142 198.25 313.345 198.454 313.753H197.435C197.435 313.549 197.232 313.345 197.028 313.345C196.824 313.345 196.62 313.345 196.62 313.549C196.62 313.753 196.417 313.957 196.417 314.16C196.417 314.364 196.417 314.568 196.62 314.772C196.824 314.975 196.824 314.975 197.028 314.975C197.232 314.975 197.435 314.772 197.435 314.568H198.454C198.454 314.975 198.25 315.179 197.843 315.383C197.639 315.587 197.232 315.79 196.824 315.79C196.417 315.79 196.213 315.79 196.009 315.587C195.806 315.383 195.602 315.179 195.398 314.975C195.194 314.772 195.194 314.364 195.194 314.16C195.194 313.957 195.398 313.549 195.398 313.345Z" fill="white"/>
<path d="M200.698 315.79L199.679 314.568V315.79H198.66V311.716H199.679V313.957L200.698 312.734H201.92L200.698 314.364L201.92 315.994H200.698V315.79Z" fill="white"/>
<path d="M204.362 315.587C203.955 315.383 203.751 315.179 203.547 314.772C203.344 314.364 203.344 314.16 203.344 313.753C203.344 313.345 203.344 312.938 203.547 312.734C203.751 312.531 203.955 312.123 204.362 311.919C204.77 311.716 204.974 311.716 205.381 311.716C205.789 311.716 205.992 311.716 206.4 311.919C206.807 312.123 207.011 312.327 207.215 312.734C207.418 312.938 207.418 313.345 207.418 313.753C207.418 314.16 207.418 314.568 207.215 314.772C207.011 315.179 206.807 315.383 206.4 315.587C206.196 315.79 205.789 315.79 205.381 315.79C204.974 315.79 204.566 315.79 204.362 315.587ZM205.992 314.568C206.196 314.364 206.196 314.16 206.196 313.753C206.196 313.345 206.196 313.142 205.992 312.938C205.789 312.734 205.585 312.531 205.177 312.531C204.77 312.531 204.566 312.734 204.362 312.938C204.159 313.142 204.159 313.345 204.159 313.753C204.159 314.16 204.159 314.364 204.362 314.568C204.566 314.772 204.77 314.975 205.177 314.975C205.585 314.975 205.789 314.772 205.992 314.568Z" fill="white"/>
<path d="M209.255 312.734C209.459 312.734 209.663 312.531 209.866 312.531V313.549H209.663C209.459 313.549 209.255 313.549 209.052 313.753C208.848 313.957 208.848 313.957 208.848 314.364V315.79H207.829V312.734H208.848V313.345C208.848 312.938 209.052 312.938 209.255 312.734Z" fill="white"/>
<path d="M210.272 313.345C210.476 313.142 210.476 312.938 210.68 312.734C210.883 312.531 211.087 312.531 211.291 312.531C211.495 312.531 211.698 312.531 211.902 312.734C212.106 312.938 212.106 312.938 212.309 313.142V311.716H213.328V315.79H212.309V315.383C212.309 315.587 212.106 315.587 211.902 315.79C211.698 315.79 211.495 315.994 211.291 315.994C211.087 315.994 210.883 315.994 210.68 315.79C210.476 315.587 210.272 315.383 210.272 315.179C210.068 314.975 210.068 314.568 210.068 314.364C210.068 314.16 210.068 313.549 210.272 313.345ZM212.106 313.549C211.902 313.345 211.902 313.345 211.698 313.345C211.495 313.345 211.291 313.345 211.291 313.549C211.291 313.753 211.087 313.957 211.087 314.16C211.087 314.364 211.087 314.568 211.291 314.772C211.495 314.975 211.495 314.975 211.698 314.975C211.902 314.975 212.106 314.975 212.106 314.772C212.309 314.568 212.309 314.364 212.309 314.16C212.309 313.957 212.309 313.753 212.106 313.549Z" fill="white"/>
<path d="M216.996 314.364H214.755C214.755 314.568 214.755 314.771 214.959 314.771C215.163 314.975 215.163 314.975 215.367 314.975C215.57 314.975 215.774 314.975 215.774 314.771H216.793C216.793 314.975 216.589 315.179 216.589 315.383C216.385 315.586 216.182 315.586 216.182 315.79C215.978 315.79 215.774 315.994 215.57 315.994C215.367 315.994 214.959 315.994 214.755 315.79C214.552 315.586 214.348 315.383 214.144 315.179C213.94 314.975 213.94 314.568 213.94 314.364C213.94 313.957 213.94 313.753 214.144 313.549C214.348 313.345 214.552 313.142 214.755 312.938C214.959 312.734 215.367 312.734 215.57 312.734C215.774 312.734 216.182 312.734 216.385 312.938C216.589 313.142 216.793 313.345 216.996 313.549C217.2 313.753 217.2 313.957 217.2 314.364C216.996 314.16 216.996 314.364 216.996 314.364ZM215.978 313.957C215.978 313.753 215.978 313.753 215.774 313.549C215.57 313.345 215.57 313.345 215.367 313.345C215.163 313.345 215.163 313.345 214.959 313.549C214.755 313.549 214.755 313.753 214.755 313.957H215.978Z" fill="white"/>
<path d="M218.829 312.734C219.032 312.734 219.236 312.531 219.44 312.531V313.549H219.236C219.032 313.549 218.829 313.549 218.625 313.753C218.421 313.957 218.421 313.957 218.421 314.364V315.79H217.402V312.734H218.421V313.345C218.421 312.938 218.625 312.938 218.829 312.734Z" fill="white"/>
<path opacity="0.3" d="M324.776 244.687C324.98 248.354 321.924 251.41 318.257 251.206C315.404 251.002 312.959 248.557 312.756 245.705C312.552 242.038 315.608 238.982 319.275 239.186C322.128 239.389 324.572 241.834 324.776 244.687Z" fill="#4951EC"/>
<path d="M320.495 247.743H316.828C316.42 247.743 316.013 247.335 316.013 246.928V243.261C316.013 242.853 316.42 242.446 316.828 242.446H320.495C320.902 242.446 321.31 242.853 321.31 243.261V246.928C321.31 247.335 320.902 247.743 320.495 247.743ZM316.828 242.853C316.624 242.853 316.216 243.057 316.216 243.464V247.131C316.216 247.335 316.42 247.743 316.828 247.743H320.495C320.699 247.743 321.106 247.539 321.106 247.131V243.464C321.106 243.26 320.902 242.853 320.495 242.853H316.828Z" fill="#DAEEF7"/>
<path opacity="0.5" d="M101.684 115.722C102.702 110.832 107.184 107.165 112.482 107.165C113.5 107.165 114.315 107.369 115.334 107.572C117.982 102.072 123.483 98.2006 130.003 98.2006C131.633 98.2006 133.263 98.4043 134.893 99.0155C138.356 93.3109 144.672 89.4399 152.006 89.4399C160.563 89.4399 167.898 94.9408 170.75 102.479C172.787 101.46 175.028 100.849 177.473 100.849C185.012 100.849 191.124 106.961 191.124 114.499C191.124 114.907 191.124 115.314 191.124 115.926H101.684V115.722Z" fill="#DDE8FE"/>
<path opacity="0.5" d="M46.0654 77.4195C46.6766 74.5672 49.3252 72.5298 52.1775 72.5298C52.7887 72.5298 53.1962 72.5298 53.8074 72.7335C55.2335 69.4738 58.4933 67.4364 62.1606 67.4364C63.1792 67.4364 63.9942 67.6401 65.0129 67.8439C67.0502 64.5841 70.7175 62.343 74.7922 62.343C79.6818 62.343 83.9603 65.3991 85.5902 69.8812C86.8126 69.27 88.035 68.8626 89.4611 68.8626C93.7396 68.8626 97.4068 72.3261 97.4068 76.8083C97.4068 77.012 97.4068 77.4195 97.4068 77.6232H46.0654V77.4195Z" fill="#DDE8FE"/>
<path opacity="0.5" d="M168.918 46.2481C169.122 45.0256 170.344 44.007 171.77 44.007C171.974 44.007 172.178 44.007 172.585 44.007C173.196 42.5808 174.623 41.5621 176.456 41.5621C176.864 41.5621 177.271 41.5621 177.679 41.7659C178.494 40.3397 180.327 39.321 182.161 39.321C184.402 39.321 186.236 40.7472 187.05 42.7846C187.662 42.5808 188.069 42.3771 188.884 42.3771C190.921 42.3771 192.348 44.007 192.348 45.8406C192.348 46.0443 192.348 46.0443 192.348 46.2481H168.918Z" fill="#DDE8FE"/>
<path opacity="0.5" d="M239.002 64.7881C238.39 61.9358 235.742 59.8985 232.889 59.8985C232.278 59.8985 231.871 59.8985 231.26 60.1022C229.833 56.8424 226.574 54.8051 222.906 54.8051C221.888 54.8051 221.073 55.0088 220.054 55.2125C218.017 51.9528 214.35 49.7117 210.275 49.7117C205.385 49.7117 201.107 52.7677 199.477 57.2499C198.254 56.6387 197.032 56.2312 195.606 56.2312C191.327 56.2312 187.66 59.6947 187.66 64.1769C187.66 64.3806 187.66 64.7881 187.66 64.9919H239.002V64.7881Z" fill="#DDE8FE"/>
<path d="M230.445 184.585L231.871 187.641C232.075 187.845 231.871 188.252 231.667 188.252L224.333 191.512C223.722 191.716 223.314 191.105 223.518 190.697L226.37 186.419C226.37 186.419 228.611 186.826 230.445 184.585Z" fill="#0B0754"/>
<path d="M239.82 184.177L241.246 187.233C241.45 187.437 241.246 187.844 241.042 187.844L233.708 191.104C233.097 191.308 232.689 190.697 232.893 190.289L235.745 186.011C235.745 186.011 237.986 186.418 239.82 184.177Z" fill="#0B0754"/>
<path d="M248.173 83.9393C248.173 83.9393 240.228 82.5131 237.579 91.4775L240.839 96.3672C240.839 96.3672 247.766 93.7186 247.766 93.5149C247.97 93.1074 248.173 83.9393 248.173 83.9393Z" fill="#FFAA45"/>
<path d="M261.006 87.8105C261.006 87.8105 263.247 91.2741 264.47 92.7002C267.526 96.1637 267.73 95.145 269.563 97.9973C271.601 101.257 269.563 103.294 268.341 104.109C267.118 105.128 269.156 108.388 266.915 110.425C264.062 112.87 261.617 110.629 259.58 112.055C257.746 113.481 257.339 115.519 252.653 115.111C248.171 114.704 248.171 99.831 248.171 99.831C248.171 99.831 251.838 91.8853 252.042 91.8853C252.449 91.8853 261.006 87.8105 261.006 87.8105Z" fill="#FFAA45"/>
<path d="M237.781 91.4775C237.781 91.4775 237.578 94.1261 236.559 95.756C234.318 99.627 233.096 98.4046 231.873 101.664C230.447 105.128 232.892 106.758 234.114 107.573C235.337 108.388 234.114 112.055 236.559 113.481C239.819 115.518 241.856 112.666 244.097 113.685C246.338 114.703 246.95 116.741 251.432 115.518C255.914 114.296 253.062 99.627 253.062 99.627C253.062 99.627 247.968 92.4962 247.765 92.4962C247.561 92.2925 237.781 91.4775 237.781 91.4775Z" fill="#FFAA45"/>
<path d="M249.19 108.999C249.19 108.999 256.728 107.573 260.192 107.777C263.656 107.98 258.155 116.945 258.155 116.945L252.45 117.148C252.45 117.148 248.987 113.277 249.19 112.87C249.394 112.462 249.19 109.406 249.19 109.406V108.999Z" fill="#FFC0BB"/>
<path d="M255.914 101.664L257.951 107.776C257.951 107.776 256.118 111.444 250.821 109.814C250.821 109.814 251.432 108.591 250.617 105.943C249.802 103.294 255.914 101.664 255.914 101.664Z" fill="#FFC0BB"/>
<path opacity="0.6" d="M255.914 101.664L256.933 104.517C256.321 106.554 254.488 107.98 251.228 108.388C251.228 107.776 251.228 106.961 250.821 105.943C249.802 103.294 255.914 101.664 255.914 101.664Z" fill="#EF7F7F"/>
<path opacity="0.6" d="M243.691 97.3859C244.098 98.4046 243.895 99.4233 243.08 99.8308C242.265 100.238 241.246 99.627 240.838 98.6084C240.431 97.5897 240.635 96.571 241.45 96.1635C242.265 95.7561 243.283 96.3673 243.691 97.3859Z" fill="#EF7F7F"/>
<path d="M243.486 101.868C242.874 100.646 242.671 99.2195 242.467 97.9971C242.467 97.7934 242.467 97.5897 242.263 97.1822C242.059 96.1635 242.059 95.1448 242.263 93.9224C242.874 90.2552 245.93 87.6066 249.598 87.1991C254.487 86.7917 258.562 90.4589 258.766 95.3486C259.377 95.1448 259.784 94.9411 260.396 95.1448C261.414 95.5523 261.822 96.9785 261.211 98.2009C260.599 99.4233 259.377 100.034 258.562 99.627C258.358 99.627 258.358 99.4233 258.155 99.4233C257.747 103.498 254.691 106.758 250.616 106.758C247.764 106.758 244.708 105.128 243.486 101.868Z" fill="#FFC0BB"/>
<path d="M248.782 95.5522C248.986 95.9597 248.986 96.5709 248.986 96.9784C248.986 97.1821 248.986 97.3859 248.986 97.7933C248.986 97.9971 248.986 98.2008 248.782 98.6083C248.578 98.812 248.578 99.0157 248.578 99.0157C248.578 99.2195 248.578 99.4232 248.782 99.4232C248.986 99.8307 249.393 99.8307 250.005 100.034C249.597 100.034 248.986 100.034 248.578 99.627C248.375 99.4232 248.171 99.2195 248.171 98.812C248.171 98.4045 248.375 98.4045 248.578 98.2008C248.578 97.9971 248.782 97.7933 248.782 97.5896C248.782 97.3859 248.782 97.1821 248.782 96.9784C248.782 96.3672 248.782 95.9597 248.782 95.5522Z" fill="#EF7F7F"/>
<path d="M251.429 96.1635C251.429 96.7747 251.836 97.1821 252.244 96.9784C252.447 96.9784 252.855 96.7747 252.855 96.3672C252.855 95.756 252.447 95.3485 252.04 95.5523C251.836 95.5523 251.632 95.756 251.429 96.1635Z" fill="#0B0754"/>
<path d="M245.318 96.5707C245.318 97.1819 245.726 97.5894 246.133 97.3856C246.337 97.3856 246.745 97.1819 246.745 96.7744C246.745 96.1632 246.337 95.7558 245.93 95.9595C245.522 96.1632 245.318 96.367 245.318 96.5707Z" fill="#0B0754"/>
<path opacity="0.3" d="M251.637 101.868C251.637 101.868 250.618 101.461 249.599 102.072C249.599 102.072 248.581 101.461 247.766 102.072C247.766 102.072 248.173 103.702 249.803 103.498C251.637 103.294 251.637 101.868 251.637 101.868Z" fill="#EF7F7F"/>
<path d="M252.451 101.257C252.247 101.461 252.044 101.665 251.84 101.665C251.636 101.868 251.432 101.868 251.229 102.072C250.821 102.276 250.21 102.479 249.802 102.479C249.395 102.479 248.784 102.479 248.376 102.276C247.969 102.072 247.358 101.868 246.95 101.665C247.154 101.868 247.358 102.072 247.561 102.072C247.765 102.276 247.969 102.276 248.173 102.479C248.376 102.479 248.58 102.683 248.988 102.683C249.191 102.683 249.599 102.683 249.802 102.683C250.414 102.683 250.821 102.479 251.229 102.276C251.84 101.868 252.247 101.665 252.451 101.257Z" fill="#EF7F7F"/>
<path d="M250.615 94.5338C251.023 94.5338 251.43 94.3301 251.634 94.3301C252.041 94.3301 252.245 94.3301 252.653 94.3301C253.06 94.3301 253.264 94.5338 253.671 94.5338C253.875 94.5338 254.486 94.9413 254.69 95.145C254.486 94.7376 254.282 94.5338 253.875 94.3301C253.468 94.1263 253.264 93.9226 252.856 93.9226C252.449 93.9226 252.041 93.9226 251.634 94.1263C251.226 94.1263 250.819 94.3301 250.615 94.5338Z" fill="#FFAA45"/>
<path d="M247.354 94.7374C247.151 94.5337 246.743 94.33 246.336 94.1262C245.928 94.1262 245.521 94.1262 245.113 94.1262C244.706 94.33 244.298 94.5337 244.095 94.7374C243.891 94.9412 243.687 95.3486 243.483 95.7561C243.687 95.7561 244.095 95.1449 244.298 95.1449C244.502 94.9412 244.91 94.7374 245.317 94.7374C245.724 94.7374 245.928 94.5337 246.336 94.5337C246.743 94.7374 246.947 94.7374 247.354 94.7374Z" fill="#FFAA45"/>
<path d="M262.432 146.079C262.432 146.079 264.673 156.673 254.487 159.118C244.3 161.563 231.465 161.97 231.465 161.97L231.261 186.418L225.964 187.03C225.964 187.03 210.072 154.025 228.816 147.505L245.93 146.486L253.061 145.468C253.061 145.468 260.191 143.227 260.191 143.634C260.191 143.838 262.229 146.283 262.432 146.079Z" fill="#4951EC"/>
<path d="M271.803 145.468C271.803 145.468 274.045 156.062 263.858 158.507C253.671 160.951 240.836 161.359 240.836 161.359L240.632 185.807L235.335 186.418C235.335 186.418 219.443 153.413 238.187 146.894L255.301 145.875L262.432 144.856C262.432 144.856 269.562 142.615 269.562 143.023C269.562 143.43 271.6 145.671 271.803 145.468Z" fill="#7C9AF2"/>
<path d="M237.781 161.97C237.984 161.97 238.392 161.766 238.596 161.766C238.799 161.766 239.207 161.563 239.411 161.563C239.614 161.563 239.614 161.563 239.818 161.359C239.614 161.359 239.614 161.359 239.411 161.155C239.207 161.155 238.799 160.952 238.596 160.748C238.392 160.544 238.188 160.34 237.984 160.137C237.781 159.933 237.577 159.729 237.373 159.525L237.577 159.933C237.781 159.933 237.781 160.137 237.984 160.137C238.188 160.34 238.392 160.544 238.596 160.544C238.799 160.748 239.003 160.748 239.411 160.952C239.614 160.952 240.022 161.155 240.226 161.155H240.633L240.226 161.359C240.022 161.563 239.614 161.563 239.411 161.563C239.207 161.563 238.799 161.766 238.596 161.766C238.392 161.97 238.188 162.174 237.781 161.97C237.577 162.174 237.17 162.174 236.966 162.174C237.373 162.174 237.577 161.97 237.781 161.97Z" fill="white"/>
<path d="M240.633 123.668C240.633 123.668 240.022 140.782 237.984 143.634L248.579 141.189V122.446L240.633 123.668Z" fill="#FFC0BB"/>
<path d="M245.115 126.113C245.115 126.113 246.541 130.391 246.949 132.836C247.56 138.541 246.949 142.615 245.726 145.875C244.097 150.357 257.543 148.727 257.951 148.727C258.154 148.524 269.767 144.041 269.767 144.041L272.008 137.522V126.113L271.397 121.019L245.115 126.113Z" fill="#BED1F9"/>
<path d="M277.51 121.019L268.953 123.872C268.953 123.872 270.379 137.522 269.972 139.356C269.564 140.985 263.452 144.245 259.581 146.079C258.97 146.283 258.359 146.486 257.544 146.486C255.303 146.283 251.432 145.875 250.821 145.875C249.802 145.875 247.153 145.875 247.153 146.283C247.153 146.69 249.191 146.283 250.617 146.486C250.821 146.486 250.617 146.69 250.617 146.894C249.802 146.894 247.968 147.097 247.357 147.301C246.542 147.505 249.394 147.301 250.821 147.709C251.024 147.709 251.024 148.116 251.024 148.116C250.821 148.32 250.209 148.524 248.376 148.524C245.32 148.727 248.376 149.135 248.376 149.135C248.376 149.135 248.58 149.135 251.228 148.727C251.228 148.727 251.432 148.931 251.228 149.135C251.024 149.339 250.413 149.746 249.598 149.95C248.58 150.153 249.394 150.561 249.394 150.561C249.394 150.561 251.228 149.95 252.247 149.95C253.062 149.95 256.525 150.153 257.951 150.357L258.155 150.153C260.192 150.153 275.88 149.746 277.51 139.967C278.732 129.576 277.51 121.019 277.51 121.019Z" fill="#FFC0BB"/>
<path d="M215.573 130.595H242.67L250.412 149.339H263.451C263.859 149.339 264.062 149.542 264.062 149.95C264.062 150.357 263.859 150.561 263.451 150.561H224.538L215.573 130.595Z" fill="#0B0754"/>
<path d="M229.019 141.393C229.223 142.208 229.834 142.819 230.649 142.615C231.261 142.412 231.872 141.8 231.668 140.986C231.464 140.171 230.853 139.559 230.038 139.763C229.427 139.763 228.816 140.578 229.019 141.393Z" fill="#DDE8FE"/>
<path d="M249.19 108.999C249.19 108.999 254.283 115.111 260.192 107.776C260.192 107.776 266.711 107.165 271.397 110.629C276.083 114.092 278.935 121.63 278.935 121.63C278.935 121.63 270.378 125.909 268.137 126.113H244.097C244.097 126.113 240.429 125.909 236.966 124.075C237.17 124.075 237.781 111.851 249.19 108.999Z" fill="#BED1F9"/>
<path d="M265.08 119.186C265.284 120.001 265.487 120.612 265.691 121.427C266.099 122.853 266.506 124.279 266.71 125.909C267.117 125.909 267.729 125.909 268.136 125.705C270.581 125.298 272.211 124.483 274.452 123.668C277.712 122.242 277.304 122.242 278.934 121.427C276.897 122.649 275.878 123.26 274.452 123.872C272.414 124.687 270.581 125.705 268.136 126.113C266.914 126.316 266.71 126.316 266.302 126.113C266.099 125.094 265.895 123.872 265.487 121.427L265.08 119.186L264.469 116.945C264.672 117.76 264.876 118.574 265.08 119.186Z" fill="#0B0754"/>
<path d="M246.337 115.315C245.93 116.13 245.726 117.148 245.319 117.963C245.115 118.778 244.911 119.797 244.707 120.612C244.504 121.427 244.504 122.445 244.504 123.464C244.504 124.483 245.93 128.761 246.337 129.576C245.726 128.761 244.3 124.483 244.096 123.464C243.892 122.445 244.096 121.631 244.3 120.612C244.504 119.593 244.707 118.778 245.115 117.963C245.319 116.945 245.726 116.13 246.337 115.315Z" fill="#0B0754"/>
<path d="M258.971 95.3485C258.971 95.3485 250.21 93.3112 245.932 87.1991C245.932 87.1991 245.932 81.6982 254.081 82.9207C261.823 84.1431 263.657 91.885 258.971 95.3485Z" fill="#FFAA45"/>
</g>
</svg>
